<svg xmlns="http://www.w3.org/2000/svg" width="805" height="600"><rect width="805" height="600" x="0" y="0" fill="#FFFFFF" id="background"/><g transform="translate(402.5,310)" id="chord_diagram"><g><g><path fill="#2ca02c" d="M1.469576158976824e-14,-240A240,240,0,0,1,94.19778634544949,-220.74142576239979L90.27287858105576,-211.54386635563313A230,230,0,0,0,1.4083438190194563e-14,-230Z"/></g><g><path fill="#cccccc" d="M103.70319635303578,-216.43855263368332A240,240,0,0,1,217.24708018829875,101.99855954698037L208.1951185137863,97.74861956585619A230,230,0,0,0,99.38222983832596,-207.42027960727984Z"/></g><g><path fill="#d62728" d="M212.60845211806355,111.34471737788496A240,240,0,0,1,122.10840479683417,206.61446580037054L117.02055459696608,198.0055297253551A230,230,0,0,0,203.74976661314423,106.70535415380641Z"/></g><g><path fill="#cccccc" d="M113.01260095225705,211.72659735140957A240,240,0,0,1,-97.25206812378293,219.41293317771192L-93.19989861862531,210.2707276286406A230,230,0,0,0,108.30374257924633,202.90465579510084Z"/></g><g><path fill="#9467bd" d="M-106.69684939047373,214.97856248972028A240,240,0,0,1,-190.13446565256694,146.4543784630997L-182.21219625037665,140.35211269380386A230,230,0,0,0,-102.25114733253733,206.02112238598193Z"/></g><g><path fill="#ff7f0e" d="M-196.32035843802612,138.0518629456515A240,240,0,0,1,-228.5333396135082,73.29742618330417L-219.01111712961202,70.24336675899984A230,230,0,0,0,-188.14034350310837,132.2997019895827Z"/></g><g><path fill="#e377c2" d="M-231.50320925646898,63.29505592031286A240,240,0,0,1,-233.2750741079863,-56.415776161579906L-223.5552793534869,-54.065118821514076A230,230,0,0,0,-221.8572422041161,60.65776192363316Z"/></g><g><path fill="#8c564b" d="M-230.60253489306967,-66.50166088821076A240,240,0,0,1,-185.99676288647717,-151.6746656358655L-178.2468977662073,-145.35488790103776A230,230,0,0,0,-220.9940959391918,-63.730758351201985Z"/></g><g><path fill="#cccccc" d="M-179.2285170375888,-159.6155966079341A240,240,0,0,1,-91.12536245004544,-222.02740443095723L-87.32847234796021,-212.77626257966736A230,230,0,0,0,-171.7606621610226,-152.96494674927018Z"/></g><g><path fill="#1f77b4" d="M-81.38892187550698,-225.77830585763243A240,240,0,0,1,-10.431495338254205,-239.7731926321372L-9.996849699160279,-229.78264293913148A230,230,0,0,0,-77.99771679736085,-216.37087644689774Z"/></g></g><g fill-opacity="0.7"><path fill="#2ca02c" d="M0.49782569484410605,-228.9994588849012A229,229,0,0,1,11.043442562638258,-228.73356198067154Q0,0,189.55082444715808,78.07358677172874L206.01471389111478,90.45959131215504L185.75417519652598,86.72016142200346Q0,0,0.49782569484410605,-228.9994588849012Z"/><path fill="#9467bd" d="M-174.46988778082977,148.32821126725918A229,229,0,0,1,-181.11575415452634,140.13594684104854Q0,0,27.63161443018752,203.12925413140633L25.18427473257386,223.58611832176487L18.247556241722048,204.18625490273627Q0,0,-174.46988778082977,148.32821126725918Z"/><path fill="#1f77b4" d="M-77.19008677800961,-215.59844735805345A229,229,0,0,1,-67.17920105717809,-218.92454166977086Q0,0,88.98150522341398,-184.68159553181133L102.3054278779803,-200.39610631622404L97.3922631744379,-180.38776863679263Q0,0,-77.19008677800961,-215.59844735805345Z"/><path fill="#e377c2" d="M-221.02341481267987,59.913688790977A229,229,0,0,1,-225.7672924720267,38.34226975350257Q0,0,139.95986598461806,-149.78730224410796L161.36392339413152,-156.80141653331088L153.73894893973957,-135.60728438732247Q0,0,-221.02341481267987,59.913688790977Z"/><path fill="#1f77b4" d="M-66.22672325961973,-219.21455500557838A229,229,0,0,1,-44.800201076162494,-224.57502528895643Q0,0,96.13821711396892,181.05922569741475L95.81141609954042,203.58087470339822L78.24834199272993,189.47875072257781Q0,0,-66.22672325961973,-219.21455500557838Z"/><path fill="#d62728" d="M144.5006385354568,177.65293541859998A229,229,0,0,1,116.9400692240642,196.89088401922288Q0,0,17.359620241146146,204.26366193007308L2.549336025185217,224.985557060516L-12.72668942104354,204.60457320495135Q0,0,144.5006385354568,177.65293541859998Z"/><path fill="#e377c2" d="M-228.10968655092051,-20.173519812883196A229,229,0,0,1,-222.69979568763293,-53.34604953214959Q0,0,-105.14070019423806,-175.98418441060363L-100.91242671762888,-201.10117387513975L-78.2483419927295,-189.47875072257798Q0,0,-228.10968655092051,-20.173519812883196Z"/><path fill="#8c564b" d="M-196.9986329688213,-116.75846268436233A229,229,0,0,1,-177.78610667148732,-144.33675995599503Q0,0,-130.4568832441929,-158.13286064006755L-130.0614042545079,-183.6001936909258L-105.90485264456893,-175.52538900777898Q0,0,-196.9986329688213,-116.75846268436233Z"/><path fill="#1f77b4" d="M-43.823367557328154,-224.76768552426597A229,229,0,0,1,-10.450716850198543,-228.76140958937322Q0,0,-152.79427580017608,-136.67080625612672L-156.2406214767801,-161.9069739095556L-131.14318220486254,-157.56416394974534Q0,0,-43.823367557328154,-224.76768552426597Z"/><path fill="#e377c2" d="M-225.93186356447788,37.36031351959129A229,229,0,0,1,-228.19524118749666,-19.181551016021054Q0,0,77.42378434675175,189.81716892164334L58.58575852086644,217.23882916857826L28.51452114984351,203.0071971226516Q0,0,-225.93186356447788,37.36031351959129Z"/><path fill="#8c564b" d="M-219.89478946858145,-63.931850939639176A229,229,0,0,1,-197.50441487144099,-115.90084601196713Q0,0,98.17563481935164,-179.9626203627223L131.33226526636687,-182.69328422250405L139.30729602625368,-150.39440572658856Q0,0,-219.89478946858145,-63.931850939639176Z"/><path fill="#ff7f0e" d="M-187.6082567291386,131.3169524739804A229,229,0,0,1,-217.90634069388645,70.4118362592532Q0,0,154.32709086392956,-134.9375745501468L189.50174408642977,-121.3016446228215L187.15713017551647,-83.64931933055271Q0,0,-187.6082567291386,131.3169524739804Z"/><path fill="#2ca02c" d="M12.037828796932635,-228.68338522475946A229,229,0,0,1,89.42229728167676,-210.81900471463055Q0,0,-13.616151429331087,204.54730606941155L-53.64823434089681,218.51056485237555L-82.66185451005654,187.59535657621765Q0,0,12.037828796932635,-228.68338522475946Z"/><path fill="#d62728" d="M202.63245928373797,106.68217491513877A229,229,0,0,1,145.27167438057847,177.0229946155673Q0,0,204.983659536876,-2.588305018755674L221.0829188924545,41.80123172817264L189.88848216208368,77.24871741446601Q0,0,202.63245928373797,106.68217491513877Z"/><path fill="#9467bd" d="M-102.25226094745959,204.90357520339325A229,229,0,0,1,-173.82333549512413,149.08537164104843Q0,0,187.5190527542114,-82.83480460629626L219.7489259305851,-48.32607528399364L204.970468611601,-3.479511049082091Q0,0,-102.25226094745959,204.90357520339325Z"/></g><g><g id="Lunes" transform="rotate(-78.4452140856534) translate(240,0)"><text x="8" dy="0.35em" style="font-family: Arial, sans-serif; font-size: 10px; fill: black; font-weight: bold;">Lunes (8)</text></g><g id="TV" transform="rotate(-19.624511904818874) translate(240,0)"><text x="8" dy="0.35em" style="font-family: Arial, sans-serif; font-size: 10px; fill: black; font-weight: bold;">TV (31)</text></g><g id="Martes" transform="rotate(43.529234993895614) translate(240,0)"><text x="8" dy="0.35em" style="font-family: Arial, sans-serif; font-size: 10px; fill: black; font-weight: bold;">Martes (11)</text></g><g id="PC" transform="rotate(87.9064547817969) translate(240,0)"><text x="8" dy="0.35em" style="font-family: Arial, sans-serif; font-size: 10px; fill: black; font-weight: bold;">PC (18)</text></g><g id="Miércoles" transform="rotate(129.3949780911115) translate(240,0)"><text x="8" dy="0.35em" transform="rotate(180) translate(-16)" text-anchor="end" style="font-family: Arial, sans-serif; font-size: 10px; fill: black; font-weight: bold;">Miércoles (9)</text></g><g id="Jueves" transform="rotate(153.55132252890624) translate(240,0)"><text x="8" dy="0.35em" transform="rotate(180) translate(-16)" text-anchor="end" style="font-family: Arial, sans-serif; font-size: 10px; fill: black; font-weight: bold;">Jueves (6)</text></g><g id="Viernes" transform="rotate(179.15201520599436) translate(240,0)"><text x="8" dy="0.35em" transform="rotate(180) translate(-16)" text-anchor="end" style="font-family: Arial, sans-serif; font-size: 10px; fill: black; font-weight: bold;">Viernes (10)</text></g><g id="Sábado" transform="rotate(207.64140436166912) translate(240,0)"><text x="8" dy="0.35em" transform="rotate(180) translate(-16)" text-anchor="end" style="font-family: Arial, sans-serif; font-size: 10px; fill: black; font-weight: bold;">Sábado (8)</text></g><g id="Cel" transform="rotate(234.6864452780506) translate(240,0)"><text x="8" dy="0.35em" transform="rotate(180) translate(-16)" text-anchor="end" style="font-family: Arial, sans-serif; font-size: 10px; fill: black; font-weight: bold;">Cel (9)</text></g><g id="Domingo" transform="rotate(258.84278971584536) translate(240,0)"><text x="8" dy="0.35em" transform="rotate(180) translate(-16)" text-anchor="end" style="font-family: Arial, sans-serif; font-size: 10px; fill: black; font-weight: bold;">Domingo (6)</text></g></g></g></svg>