<svg xmlns="http://www.w3.org/2000/svg" width="1005" height="600"><rect width="1005" height="600" x="0" y="0" fill="#FFFFFF" id="background"/><g transform="translate(20,20)" id="viz"><g id="nodes"><g transform="translate(383.5,281)"><path id="p_945.5" d="M-5.143516556418883e-14,280A280,280,0,1,1,5.143516556418883e-14,-280A280,280,0,1,1,-5.143516556418883e-14,280Z" fill="none" stroke="#ccc"/></g><g transform="translate(307.1600564702708,291.1744521583214)" id="Martes"><path id="p_687.8039106559303" d="M-1.625156550228899e-14,88.46940202733808A88.46940202733808,88.46940202733808,0,1,1,1.625156550228899e-14,-88.46940202733808A88.46940202733808,88.46940202733808,0,1,1,-1.625156550228899e-14,88.46940202733808Z" fill="none" stroke="#ccc"/></g><g transform="translate(482.7478990692576,291.1744521583214)" id="Viernes"><path id="p_860.2377896239303" d="M-1.5672191782491732e-14,85.31543839635135A85.31543839635135,85.31543839635135,0,1,1,1.5672191782491732e-14,-85.31543839635135A85.31543839635135,85.31543839635135,0,1,1,-1.5672191782491732e-14,85.31543839635135Z" fill="none" stroke="#ccc"/></g><g transform="translate(398.08081264325193,441.4672417936588)" id="Miércoles"><path id="p_925.9301591984304" d="M-1.5684438195098866e-14,85.38210476151971A85.38210476151971,85.38210476151971,0,1,1,1.5684438195098866e-14,-85.38210476151971A85.38210476151971,85.38210476151971,0,1,1,-1.5684438195098866e-14,85.38210476151971Z" fill="none" stroke="#ccc"/></g><g transform="translate(397.95502701893645,149.04884463662214)" id="Lunes"><path id="p_626.3832240116532" d="M-1.4398053447320075e-14,78.37935235609461A78.37935235609461,78.37935235609461,0,1,1,1.4398053447320075e-14,-78.37935235609461A78.37935235609461,78.37935235609461,0,1,1,-1.4398053447320075e-14,78.37935235609461Z" fill="none" stroke="#ccc"/></g><g transform="translate(241.61086367991732,137.7483015214483)" id="Sábado"><path id="p_456.9288431444388" d="M-1.4065621650709247e-14,76.56967794307323A76.56967794307323,76.56967794307323,0,1,1,1.4065621650709247e-14,-76.56967794307323A76.56967794307323,76.56967794307323,0,1,1,-1.4065621650709247e-14,76.56967794307323Z" fill="none" stroke="#ccc"/></g><g transform="translate(242.4769021945123,436.18295704936884)" id="Jueves"><path id="p_748.1683636474081" d="M-1.258480809482275e-14,68.50850440352698A68.50850440352698,68.50850440352698,0,1,1,1.258480809482275e-14,-68.50850440352698A68.50850440352698,68.50850440352698,0,1,1,-1.258480809482275e-14,68.50850440352698Z" fill="none" stroke="#ccc"/></g><g transform="translate(546.6457211755918,149.2702086263761)" id="Domingo"><path id="p_765.4244342054949" d="M-1.258480809482275e-14,68.50850440352698A68.50850440352698,68.50850440352698,0,1,1,1.258480809482275e-14,-68.50850440352698A68.50850440352698,68.50850440352698,0,1,1,-1.258480809482275e-14,68.50850440352698Z" fill="none" stroke="#ccc"/></g><g transform="translate(270.65827470277355,273.2596711715587)" id="Flow "><path id="p_590.9233146277194" d="M-8.451049138114394e-15,46.0053687533872A46.0053687533872,46.0053687533872,0,1,1,8.451049138114394e-15,-46.0053687533872A46.0053687533872,46.0053687533872,0,1,1,-8.451049138114394e-15,46.0053687533872Z" fill="none" stroke="#ccc"/></g><g transform="translate(354.508653730735,273.2596711715587)" id="Twitch "><path id="p_664.8103330015705" d="M-6.620809478043349e-15,36.04200809927681A36.04200809927681,36.04200809927681,0,1,1,6.620809478043349e-15,-36.04200809927681A36.04200809927681,36.04200809927681,0,1,1,-6.620809478043349e-15,36.04200809927681Z" fill="none" stroke="#ccc"/></g><g transform="translate(321.9548862495093,339.5887274512623)" id="Star+"><path id="p_698.5856218000484" d="M-6.620809478043349e-15,36.04200809927681A36.04200809927681,36.04200809927681,0,1,1,6.620809478043349e-15,-36.04200809927681A36.04200809927681,36.04200809927681,0,1,1,-6.620809478043349e-15,36.04200809927681Z" fill="none" stroke="#ccc"/></g><g transform="translate(445.871353615421,284.326057790644)" id="Twitch"><path id="p_777.2027801594521" d="M-8.451049138114394e-15,46.0053687533872A46.0053687533872,46.0053687533872,0,1,1,8.451049138114394e-15,-46.0053687533872A46.0053687533872,46.0053687533872,0,1,1,-8.451049138114394e-15,46.0053687533872Z" fill="none" stroke="#ccc"/></g><g transform="translate(529.7217326433824,284.326057790644)" id="Amazon "><path id="p_851.0897985333032" d="M-6.620809478043349e-15,36.04200809927681A36.04200809927681,36.04200809927681,0,1,1,6.620809478043349e-15,-36.04200809927681A36.04200809927681,36.04200809927681,0,1,1,-6.620809478043349e-15,36.04200809927681Z" fill="none" stroke="#ccc"/></g><g transform="translate(496.42140273547443,343.15967705274335)" id="Youtube "><path id="p_870.3401132348084" d="M-5.466645758412957e-15,29.759033446590745A29.759033446590745,29.759033446590745,0,1,1,5.466645758412957e-15,-29.759033446590745A29.759033446590745,29.759033446590745,0,1,1,-5.466645758412957e-15,29.759033446590745Z" fill="none" stroke="#ccc"/></g><g transform="translate(355.8405108063164,441.4672417936588)" id="Youtube "><path id="p_839.646553349262" d="M-7.593814502730647e-15,41.338800749286825A41.338800749286825,41.338800749286825,0,1,1,7.593814502730647e-15,-41.338800749286825A41.338800749286825,41.338800749286825,0,1,1,-7.593814502730647e-15,41.338800749286825Z" fill="none" stroke="#ccc"/></g><g transform="translate(440.3211144801875,441.4672417936588)" id="Flow "><path id="p_924.1271570231331" d="M-7.593814502730647e-15,41.338800749286825A41.338800749286825,41.338800749286825,0,1,1,7.593814502730647e-15,-41.338800749286825A41.338800749286825,41.338800749286825,0,1,1,-7.593814502730647e-15,41.338800749286825Z" fill="none" stroke="#ccc"/></g><g transform="translate(398.08081264325193,490.4926536714576)" id="Twitch "><path id="p_911.1443677770017" d="M-3.962510314577846e-15,21.570901462292095A21.570901462292095,21.570901462292095,0,1,1,3.962510314577846e-15,-21.570901462292095A21.570901462292095,21.570901462292095,0,1,1,-3.962510314577846e-15,21.570901462292095Z" fill="none" stroke="#ccc"/></g><g transform="translate(375.48262446899565,149.04884463662214)" id="Twitch "><path id="p_579.6354167364743" d="M-9.938733943104656e-15,54.10394763085645A54.10394763085645,54.10394763085645,0,1,1,9.938733943104656e-15,-54.10394763085645A54.10394763085645,54.10394763085645,0,1,1,-9.938733943104656e-15,54.10394763085645Z" fill="none" stroke="#ccc"/></g><g transform="translate(452.9604757374416,149.04884463662214)" id="Youtube "><path id="p_624.5802218363558" d="M-3.962510314577846e-15,21.570901462292095A21.570901462292095,21.570901462292095,0,1,1,3.962510314577846e-15,-21.570901462292095A21.570901462292095,21.570901462292095,0,1,1,-3.962510314577846e-15,21.570901462292095Z" fill="none" stroke="#ccc"/></g><g transform="translate(204.66735449299182,126.13895119547199)" id="Amazon "><path id="p_367.8483137877406" d="M-6.620809478043349e-15,36.04200809927681A36.04200809927681,36.04200809927681,0,1,1,6.620809478043349e-15,-36.04200809927681A36.04200809927681,36.04200809927681,0,1,1,-6.620809478043349e-15,36.04200809927681Z" fill="none" stroke="#ccc"/></g><g transform="translate(278.5543728668428,126.13895119547199)" id="Star+"><path id="p_441.7353321615916" d="M-6.620809478043349e-15,36.04200809927681A36.04200809927681,36.04200809927681,0,1,1,6.620809478043349e-15,-36.04200809927681A36.04200809927681,36.04200809927681,0,1,1,-6.620809478043349e-15,36.04200809927681Z" fill="none" stroke="#ccc"/></g><g transform="translate(241.61086367991732,182.7559438426334)" id="Youtube "><path id="p_455.1258409691415" d="M-5.466645758412957e-15,29.759033446590745A29.759033446590745,29.759033446590745,0,1,1,5.466645758412957e-15,-29.759033446590745A29.759033446590745,29.759033446590745,0,1,1,-5.466645758412957e-15,29.759033446590745Z" fill="none" stroke="#ccc"/></g><g transform="translate(211.81664271865017,435.73757960367845)" id="Netflix"><path id="p_684.5962304216055" d="M-6.620809478043349e-15,36.04200809927681A36.04200809927681,36.04200809927681,0,1,1,6.620809478043349e-15,-36.04200809927681A36.04200809927681,36.04200809927681,0,1,1,-6.620809478043349e-15,36.04200809927681Z" fill="none" stroke="#ccc"/></g><g transform="translate(279.4206864398151,435.73757960367845)" id="Star+"><path id="p_745.9172994900842" d="M-5.466645758412957e-15,29.759033446590745A29.759033446590745,29.759033446590745,0,1,1,5.466645758412957e-15,-29.759033446590745A29.759033446590745,29.759033446590745,0,1,1,-5.466645758412957e-15,29.759033446590745Z" fill="none" stroke="#ccc"/></g><g transform="translate(250.84868874204943,480.53434232991043)" id="Flow "><path id="p_753.953932534252" d="M-3.962510314577846e-15,21.570901462292095A21.570901462292095,21.570901462292095,0,1,1,3.962510314577846e-15,-21.570901462292095A21.570901462292095,21.570901462292095,0,1,1,-3.962510314577846e-15,21.570901462292095Z" fill="none" stroke="#ccc"/></g><g transform="translate(515.9854616997297,148.82483118068572)" id="Amazon "><path id="p_701.8523009796922" d="M-6.620809478043349e-15,36.04200809927681A36.04200809927681,36.04200809927681,0,1,1,6.620809478043349e-15,-36.04200809927681A36.04200809927681,36.04200809927681,0,1,1,-6.620809478043349e-15,36.04200809927681Z" fill="none" stroke="#ccc"/></g><g transform="translate(583.5895054208946,148.82483118068572)" id="Twitch"><path id="p_763.173370048171" d="M-5.466645758412957e-15,29.759033446590745A29.759033446590745,29.759033446590745,0,1,1,5.466645758412957e-15,-29.759033446590745A29.759033446590745,29.759033446590745,0,1,1,-5.466645758412957e-15,29.759033446590745Z" fill="none" stroke="#ccc"/></g><g transform="translate(555.0175077231289,193.6215939069177)" id="Youtube "><path id="p_771.2100030923388" d="M-3.962510314577846e-15,21.570901462292095A21.570901462292095,21.570901462292095,0,1,1,3.962510314577846e-15,-21.570901462292095A21.570901462292095,21.570901462292095,0,1,1,-3.962510314577846e-15,21.570901462292095Z" fill="none" stroke="#ccc"/></g><g transform="translate(270.65827470277355,273.2596711715587)" id="ARG"><path id="p_589.120312452422" d="M-8.119843011689346e-15,44.20236657808982A44.20236657808982,44.20236657808982,0,1,1,8.119843011689346e-15,-44.20236657808982A44.20236657808982,44.20236657808982,0,1,1,-8.119843011689346e-15,44.20236657808982Z" fill="#d62728" stroke="none"/></g><g transform="translate(354.508653730735,273.2596711715587)" id="ARG"><path id="p_663.0073308262731" d="M-6.289603351618301e-15,34.239005923979434A34.239005923979434,34.239005923979434,0,1,1,6.289603351618301e-15,-34.239005923979434A34.239005923979434,34.239005923979434,0,1,1,-6.289603351618301e-15,34.239005923979434Z" fill="#d62728" stroke="none"/></g><g transform="translate(321.9548862495093,339.5887274512623)" id="ARG"><path id="p_696.7826196247511" d="M-6.289603351618301e-15,34.239005923979434A34.239005923979434,34.239005923979434,0,1,1,6.289603351618301e-15,-34.239005923979434A34.239005923979434,34.239005923979434,0,1,1,-6.289603351618301e-15,34.239005923979434Z" fill="#d62728" stroke="none"/></g><g transform="translate(445.871353615421,284.326057790644)" id="ESP"><path id="p_775.3997779841548" d="M-8.119843011689346e-15,44.20236657808982A44.20236657808982,44.20236657808982,0,1,1,8.119843011689346e-15,-44.20236657808982A44.20236657808982,44.20236657808982,0,1,1,-8.119843011689346e-15,44.20236657808982Z" fill="#e377c2" stroke="none"/></g><g transform="translate(529.7217326433824,284.326057790644)" id="EEUU"><path id="p_849.2867963580059" d="M-6.289603351618301e-15,34.239005923979434A34.239005923979434,34.239005923979434,0,1,1,6.289603351618301e-15,-34.239005923979434A34.239005923979434,34.239005923979434,0,1,1,-6.289603351618301e-15,34.239005923979434Z" fill="#e377c2" stroke="none"/></g><g transform="translate(496.42140273547443,343.15967705274335)" id="ARG"><path id="p_868.5371110595111" d="M-5.13543963198791e-15,27.95603127129337A27.95603127129337,27.95603127129337,0,1,1,5.13543963198791e-15,-27.95603127129337A27.95603127129337,27.95603127129337,0,1,1,-5.13543963198791e-15,27.95603127129337Z" fill="#e377c2" stroke="none"/></g><g transform="translate(355.8405108063164,441.4672417936588)" id="ARG"><path id="p_837.8435511739647" d="M-7.262608376305598e-15,39.53579857398944A39.53579857398944,39.53579857398944,0,1,1,7.262608376305598e-15,-39.53579857398944A39.53579857398944,39.53579857398944,0,1,1,-7.262608376305598e-15,39.53579857398944Z" fill="#9467bd" stroke="none"/></g><g transform="translate(440.3211144801875,441.4672417936588)" id="ARG"><path id="p_922.3241548478356" d="M-7.262608376305598e-15,39.53579857398944A39.53579857398944,39.53579857398944,0,1,1,7.262608376305598e-15,-39.53579857398944A39.53579857398944,39.53579857398944,0,1,1,-7.262608376305598e-15,39.53579857398944Z" fill="#9467bd" stroke="none"/></g><g transform="translate(398.08081264325193,490.4926536714576)" id="ARG"><path id="p_909.3413656017043" d="M-3.631304188152799e-15,19.76789928699472A19.76789928699472,19.76789928699472,0,1,1,3.631304188152799e-15,-19.76789928699472A19.76789928699472,19.76789928699472,0,1,1,-3.631304188152799e-15,19.76789928699472Z" fill="#9467bd" stroke="none"/></g><g transform="translate(375.48262446899565,149.04884463662214)" id="ARG"><path id="p_577.8324145611768" d="M-9.607527816679607e-15,52.30094545555907A52.30094545555907,52.30094545555907,0,1,1,9.607527816679607e-15,-52.30094545555907A52.30094545555907,52.30094545555907,0,1,1,-9.607527816679607e-15,52.30094545555907Z" fill="#2ca02c" stroke="none"/></g><g transform="translate(452.9604757374416,149.04884463662214)" id="ARG"><path id="p_622.7772196610584" d="M-3.631304188152799e-15,19.76789928699472A19.76789928699472,19.76789928699472,0,1,1,3.631304188152799e-15,-19.76789928699472A19.76789928699472,19.76789928699472,0,1,1,-3.631304188152799e-15,19.76789928699472Z" fill="#2ca02c" stroke="none"/></g><g transform="translate(204.66735449299182,126.13895119547199)" id="EEUU"><path id="p_366.04531161244324" d="M-6.289603351618301e-15,34.239005923979434A34.239005923979434,34.239005923979434,0,1,1,6.289603351618301e-15,-34.239005923979434A34.239005923979434,34.239005923979434,0,1,1,-6.289603351618301e-15,34.239005923979434Z" fill="#8c564b" stroke="none"/></g><g transform="translate(278.5543728668428,126.13895119547199)" id="ARG"><path id="p_439.93232998629423" d="M-6.289603351618301e-15,34.239005923979434A34.239005923979434,34.239005923979434,0,1,1,6.289603351618301e-15,-34.239005923979434A34.239005923979434,34.239005923979434,0,1,1,-6.289603351618301e-15,34.239005923979434Z" fill="#8c564b" stroke="none"/></g><g transform="translate(241.61086367991732,182.7559438426334)" id="ARG"><path id="p_453.3228387938441" d="M-5.13543963198791e-15,27.95603127129337A27.95603127129337,27.95603127129337,0,1,1,5.13543963198791e-15,-27.95603127129337A27.95603127129337,27.95603127129337,0,1,1,-5.13543963198791e-15,27.95603127129337Z" fill="#8c564b" stroke="none"/></g><g transform="translate(211.81664271865017,435.73757960367845)" id="AUS"><path id="p_682.7932282463081" d="M-6.289603351618301e-15,34.239005923979434A34.239005923979434,34.239005923979434,0,1,1,6.289603351618301e-15,-34.239005923979434A34.239005923979434,34.239005923979434,0,1,1,-6.289603351618301e-15,34.239005923979434Z" fill="#ff7f0e" stroke="none"/></g><g transform="translate(279.4206864398151,435.73757960367845)" id="ARG"><path id="p_744.1142973147869" d="M-5.13543963198791e-15,27.95603127129337A27.95603127129337,27.95603127129337,0,1,1,5.13543963198791e-15,-27.95603127129337A27.95603127129337,27.95603127129337,0,1,1,-5.13543963198791e-15,27.95603127129337Z" fill="#ff7f0e" stroke="none"/></g><g transform="translate(250.84868874204943,480.53434232991043)" id="ARG"><path id="p_752.1509303589546" d="M-3.631304188152799e-15,19.76789928699472A19.76789928699472,19.76789928699472,0,1,1,3.631304188152799e-15,-19.76789928699472A19.76789928699472,19.76789928699472,0,1,1,-3.631304188152799e-15,19.76789928699472Z" fill="#ff7f0e" stroke="none"/></g><g transform="translate(515.9854616997297,148.82483118068572)" id="EEUU"><path id="p_700.0492988043949" d="M-6.289603351618301e-15,34.239005923979434A34.239005923979434,34.239005923979434,0,1,1,6.289603351618301e-15,-34.239005923979434A34.239005923979434,34.239005923979434,0,1,1,-6.289603351618301e-15,34.239005923979434Z" fill="#1f77b4" stroke="none"/></g><g transform="translate(583.5895054208946,148.82483118068572)" id="ARG"><path id="p_761.3703678728737" d="M-5.13543963198791e-15,27.95603127129337A27.95603127129337,27.95603127129337,0,1,1,5.13543963198791e-15,-27.95603127129337A27.95603127129337,27.95603127129337,0,1,1,-5.13543963198791e-15,27.95603127129337Z" fill="#1f77b4" stroke="none"/></g><g transform="translate(555.0175077231289,193.6215939069177)" id="MEX"><path id="p_769.4070009170414" d="M-3.631304188152799e-15,19.76789928699472A19.76789928699472,19.76789928699472,0,1,1,3.631304188152799e-15,-19.76789928699472A19.76789928699472,19.76789928699472,0,1,1,-3.631304188152799e-15,19.76789928699472Z" fill="#1f77b4" stroke="none"/></g></g><g id="labels"><g transform="translate(270.65827470277355,273.2596711715587)"><text text-anchor="middle" dominant-baseline="text-before-edge" transform="translate(0,-11.600000381469727)"><tspan x="0" y="0" dy="0" style="font-family: Arial, sans-serif; font-size: 10px; fill: black; font-weight: bold;">Flow </tspan><tspan x="0" y="0" dy="12" style="font-family: Arial, sans-serif; font-size: 10px; fill: black; font-weight: normal;">ARG</tspan></text></g><g transform="translate(354.508653730735,273.2596711715587)"><text text-anchor="middle" dominant-baseline="text-before-edge" transform="translate(0,-11.600000381469727)"><tspan x="0" y="0" dy="0" style="font-family: Arial, sans-serif; font-size: 10px; fill: black; font-weight: bold;">Twitch </tspan><tspan x="0" y="0" dy="12" style="font-family: Arial, sans-serif; font-size: 10px; fill: black; font-weight: normal;">ARG</tspan></text></g><g transform="translate(321.9548862495093,339.5887274512623)"><text text-anchor="middle" dominant-baseline="text-before-edge" transform="translate(0,-11.600000381469727)"><tspan x="0" y="0" dy="0" style="font-family: Arial, sans-serif; font-size: 10px; fill: black; font-weight: bold;">Star+</tspan><tspan x="0" y="0" dy="12" style="font-family: Arial, sans-serif; font-size: 10px; fill: black; font-weight: normal;">ARG</tspan></text></g><g transform="translate(445.871353615421,284.326057790644)"><text text-anchor="middle" dominant-baseline="text-before-edge" transform="translate(0,-11.600000381469727)"><tspan x="0" y="0" dy="0" style="font-family: Arial, sans-serif; font-size: 10px; fill: black; font-weight: bold;">Twitch</tspan><tspan x="0" y="0" dy="12" style="font-family: Arial, sans-serif; font-size: 10px; fill: black; font-weight: normal;">ESP</tspan></text></g><g transform="translate(529.7217326433824,284.326057790644)"><text text-anchor="middle" dominant-baseline="text-before-edge" transform="translate(0,-11.600000381469727)"><tspan x="0" y="0" dy="0" style="font-family: Arial, sans-serif; font-size: 10px; fill: black; font-weight: bold;">Amazon </tspan><tspan x="0" y="0" dy="12" style="font-family: Arial, sans-serif; font-size: 10px; fill: black; font-weight: normal;">EEUU</tspan></text></g><g transform="translate(496.42140273547443,343.15967705274335)"><text text-anchor="middle" dominant-baseline="text-before-edge" transform="translate(0,-11.600000381469727)"><tspan x="0" y="0" dy="0" style="font-family: Arial, sans-serif; font-size: 10px; fill: black; font-weight: bold;">Youtube </tspan><tspan x="0" y="0" dy="12" style="font-family: Arial, sans-serif; font-size: 10px; fill: black; font-weight: normal;">ARG</tspan></text></g><g transform="translate(355.8405108063164,441.4672417936588)"><text text-anchor="middle" dominant-baseline="text-before-edge" transform="translate(0,-11.600000381469727)"><tspan x="0" y="0" dy="0" style="font-family: Arial, sans-serif; font-size: 10px; fill: black; font-weight: bold;">Youtube </tspan><tspan x="0" y="0" dy="12" style="font-family: Arial, sans-serif; font-size: 10px; fill: black; font-weight: normal;">ARG</tspan></text></g><g transform="translate(440.3211144801875,441.4672417936588)"><text text-anchor="middle" dominant-baseline="text-before-edge" transform="translate(0,-11.600000381469727)"><tspan x="0" y="0" dy="0" style="font-family: Arial, sans-serif; font-size: 10px; fill: black; font-weight: bold;">Flow </tspan><tspan x="0" y="0" dy="12" style="font-family: Arial, sans-serif; font-size: 10px; fill: black; font-weight: normal;">ARG</tspan></text></g><g transform="translate(398.08081264325193,490.4926536714576)"><text text-anchor="middle" dominant-baseline="text-before-edge" transform="translate(0,-11.600000381469727)"><tspan x="0" y="0" dy="0" style="font-family: Arial, sans-serif; font-size: 10px; fill: black; font-weight: bold;">Twitch </tspan><tspan x="0" y="0" dy="12" style="font-family: Arial, sans-serif; font-size: 10px; fill: black; font-weight: normal;">ARG</tspan></text></g><g transform="translate(375.48262446899565,149.04884463662214)"><text text-anchor="middle" dominant-baseline="text-before-edge" transform="translate(0,-11.600000381469727)"><tspan x="0" y="0" dy="0" style="font-family: Arial, sans-serif; font-size: 10px; fill: black; font-weight: bold;">Twitch </tspan><tspan x="0" y="0" dy="12" style="font-family: Arial, sans-serif; font-size: 10px; fill: black; font-weight: normal;">ARG</tspan></text></g><g transform="translate(452.9604757374416,149.04884463662214)"><text text-anchor="middle" dominant-baseline="text-before-edge" transform="translate(0,-11.600000381469727)"><tspan x="0" y="0" dy="0" style="font-family: Arial, sans-serif; font-size: 10px; fill: black; font-weight: bold;">Youtube </tspan><tspan x="0" y="0" dy="12" style="font-family: Arial, sans-serif; font-size: 10px; fill: black; font-weight: normal;">ARG</tspan></text></g><g transform="translate(204.66735449299182,126.13895119547199)"><text text-anchor="middle" dominant-baseline="text-before-edge" transform="translate(0,-11.600000381469727)"><tspan x="0" y="0" dy="0" style="font-family: Arial, sans-serif; font-size: 10px; fill: black; font-weight: bold;">Amazon </tspan><tspan x="0" y="0" dy="12" style="font-family: Arial, sans-serif; font-size: 10px; fill: black; font-weight: normal;">EEUU</tspan></text></g><g transform="translate(278.5543728668428,126.13895119547199)"><text text-anchor="middle" dominant-baseline="text-before-edge" transform="translate(0,-11.600000381469727)"><tspan x="0" y="0" dy="0" style="font-family: Arial, sans-serif; font-size: 10px; fill: black; font-weight: bold;">Star+</tspan><tspan x="0" y="0" dy="12" style="font-family: Arial, sans-serif; font-size: 10px; fill: black; font-weight: normal;">ARG</tspan></text></g><g transform="translate(241.61086367991732,182.7559438426334)"><text text-anchor="middle" dominant-baseline="text-before-edge" transform="translate(0,-11.600000381469727)"><tspan x="0" y="0" dy="0" style="font-family: Arial, sans-serif; font-size: 10px; fill: black; font-weight: bold;">Youtube </tspan><tspan x="0" y="0" dy="12" style="font-family: Arial, sans-serif; font-size: 10px; fill: black; font-weight: normal;">ARG</tspan></text></g><g transform="translate(211.81664271865017,435.73757960367845)"><text text-anchor="middle" dominant-baseline="text-before-edge" transform="translate(0,-11.600000381469727)"><tspan x="0" y="0" dy="0" style="font-family: Arial, sans-serif; font-size: 10px; fill: black; font-weight: bold;">Netflix</tspan><tspan x="0" y="0" dy="12" style="font-family: Arial, sans-serif; font-size: 10px; fill: black; font-weight: normal;">AUS</tspan></text></g><g transform="translate(279.4206864398151,435.73757960367845)"><text text-anchor="middle" dominant-baseline="text-before-edge" transform="translate(0,-11.600000381469727)"><tspan x="0" y="0" dy="0" style="font-family: Arial, sans-serif; font-size: 10px; fill: black; font-weight: bold;">Star+</tspan><tspan x="0" y="0" dy="12" style="font-family: Arial, sans-serif; font-size: 10px; fill: black; font-weight: normal;">ARG</tspan></text></g><g transform="translate(250.84868874204943,480.53434232991043)"><text text-anchor="middle" dominant-baseline="text-before-edge" transform="translate(0,-11.600000381469727)"><tspan x="0" y="0" dy="0" style="font-family: Arial, sans-serif; font-size: 10px; fill: black; font-weight: bold;">Flow </tspan><tspan x="0" y="0" dy="12" style="font-family: Arial, sans-serif; font-size: 10px; fill: black; font-weight: normal;">ARG</tspan></text></g><g transform="translate(515.9854616997297,148.82483118068572)"><text text-anchor="middle" dominant-baseline="text-before-edge" transform="translate(0,-11.600000381469727)"><tspan x="0" y="0" dy="0" style="font-family: Arial, sans-serif; font-size: 10px; fill: black; font-weight: bold;">Amazon </tspan><tspan x="0" y="0" dy="12" style="font-family: Arial, sans-serif; font-size: 10px; fill: black; font-weight: normal;">EEUU</tspan></text></g><g transform="translate(583.5895054208946,148.82483118068572)"><text text-anchor="middle" dominant-baseline="text-before-edge" transform="translate(0,-11.600000381469727)"><tspan x="0" y="0" dy="0" style="font-family: Arial, sans-serif; font-size: 10px; fill: black; font-weight: bold;">Twitch</tspan><tspan x="0" y="0" dy="12" style="font-family: Arial, sans-serif; font-size: 10px; fill: black; font-weight: normal;">ARG</tspan></text></g><g transform="translate(555.0175077231289,193.6215939069177)"><text text-anchor="middle" dominant-baseline="text-before-edge" transform="translate(0,-11.600000381469727)"><tspan x="0" y="0" dy="0" style="font-family: Arial, sans-serif; font-size: 10px; fill: black; font-weight: bold;">Youtube </tspan><tspan x="0" y="0" dy="12" style="font-family: Arial, sans-serif; font-size: 10px; fill: black; font-weight: normal;">MEX</tspan></text></g></g></g><g id="legend" transform="translate(805,20)"><g transform="translate(5,0)"><g class="legendSize" transform="translate(0,0)"><g class="legendCells" transform="translate(50,16)"><g class="cell" transform="translate(0, 25)"><circle class="swatch" r="25" fill="none" stroke="#ccc"/><text class="label" transform="translate( 55,&#10;          5)" font-family="&quot;Arial&quot;, sans-serif" font-size="10px"><tspan x="0" dy="0em">1.6</tspan></text></g><g class="cell" transform="translate(0, 125)"><circle class="swatch" r="50" fill="none" stroke="#ccc"/><text class="label" transform="translate( 55,&#10;          5)" font-family="&quot;Arial&quot;, sans-serif" font-size="10px"><tspan x="0" dy="0em">6.4</tspan></text></g></g><text class="legendTitle" font-family="&quot;Arial&quot;, sans-serif" font-size="12px" font-weight="bold"><tspan x="0" dy="0em">Cant Horas [sum]</tspan></text></g><g class="legendColor" transform="translate(0,223.8000030517578)"><g class="legendCells" transform="translate(0,16)"><g class="cell" transform="translate(0, 0)"><rect class="swatch" height="15" width="15" style="fill: rgb(31, 119, 180);"/><text class="label" transform="translate( 20, 12.5)" font-family="&quot;Arial&quot;, sans-serif" font-size="10px"><tspan x="0" dy="0em">Domingo</tspan></text></g><g class="cell" transform="translate(0, 21)"><rect class="swatch" height="15" width="15" style="fill: rgb(255, 127, 14);"/><text class="label" transform="translate( 20, 12.5)" font-family="&quot;Arial&quot;, sans-serif" font-size="10px"><tspan x="0" dy="0em">Jueves</tspan></text></g><g class="cell" transform="translate(0, 42)"><rect class="swatch" height="15" width="15" style="fill: rgb(44, 160, 44);"/><text class="label" transform="translate( 20, 12.5)" font-family="&quot;Arial&quot;, sans-serif" font-size="10px"><tspan x="0" dy="0em">Lunes</tspan></text></g><g class="cell" transform="translate(0, 63)"><rect class="swatch" height="15" width="15" style="fill: rgb(214, 39, 40);"/><text class="label" transform="translate( 20, 12.5)" font-family="&quot;Arial&quot;, sans-serif" font-size="10px"><tspan x="0" dy="0em">Martes</tspan></text></g><g class="cell" transform="translate(0, 84)"><rect class="swatch" height="15" width="15" style="fill: rgb(148, 103, 189);"/><text class="label" transform="translate( 20, 12.5)" font-family="&quot;Arial&quot;, sans-serif" font-size="10px"><tspan x="0" dy="0em">Miércoles</tspan></text></g><g class="cell" transform="translate(0, 105)"><rect class="swatch" height="15" width="15" style="fill: rgb(140, 86, 75);"/><text class="label" transform="translate( 20, 12.5)" font-family="&quot;Arial&quot;, sans-serif" font-size="10px"><tspan x="0" dy="0em">Sábado</tspan></text></g><g class="cell" transform="translate(0, 126)"><rect class="swatch" height="15" width="15" style="fill: rgb(227, 119, 194);"/><text class="label" transform="translate( 20, 12.5)" font-family="&quot;Arial&quot;, sans-serif" font-size="10px"><tspan x="0" dy="0em">Viernes</tspan></text></g></g><text class="legendTitle" font-family="&quot;Arial&quot;, sans-serif" font-size="12px" font-weight="bold"><tspan x="0" dy="0em">Dia de Semana [csvDistinct]</tspan></text></g></g></g></svg>