<svg xmlns="http://www.w3.org/2000/svg" width="1005" height="600"><rect width="1005" height="600" x="0" y="0" fill="#FFFFFF" id="background"/><g transform="translate(402.5,300)" id="viz"><path fill="#2ca02c" display="" d="M0.9999920729479009,-113.99561402025098A114,114,0,0,1,78.65470927834143,-82.51931112375811L39.66027147384818,-42.32095068191007A58,58,0,0,0,0.9999920729479037,-57.991378806285Z"><title>Lunes</title></path><path fill="#d62728" display="" d="M80.09024506001127,-81.12676898673669A114,114,0,0,1,113.63802117433548,-9.077452483008857L57.77464385016447,-5.107888799362474A58,58,0,0,0,41.095807255518004,-40.92840854488865Z"><title>Martes</title></path><path fill="#9467bd" display="" d="M113.77977946106297,-7.08249855572666A114,114,0,0,1,98.45559338860916,57.46734838581696L50.33729001830027,28.81244928175193A58,58,0,0,0,57.91640213689198,-3.1129348720802765Z"><title>Miércoles</title></path><path fill="#ff7f0e" display="" d="M97.43228963860845,59.18571563965679A114,114,0,0,1,12.527606421366723,113.30957186994986L6.861751920580329,57.59267627555098A58,58,0,0,0,49.31398626829955,30.530816535591768Z"><title>Jueves</title></path><path fill="#e377c2" display="" d="M10.537883547344864,113.5119069099916A114,114,0,0,1,-86.59949763927924,74.13856627035939L-43.73832701212793,38.0914524556384A58,58,0,0,0,4.872029046558458,57.795011315592724Z"><title>Viernes</title></path><path fill="#8c564b" display="" d="M-87.88678699979468,72.60793807052174A114,114,0,0,1,-101.76579236588849,-51.378239597546276L-51.995126071244236,-25.70032810754403A58,58,0,0,0,-45.025616372643405,36.56082425580072Z"><title>Sábado</title></path><path fill="#1f77b4" display="" d="M-100.8488007190333,-53.15561488246287A114,114,0,0,1,-0.9999920729479655,-113.99561402025098L-0.9999920729479237,-57.991378806285A58,58,0,0,0,-51.078134424389035,-27.477703392460654Z"><title>Domingo</title></path><path fill="#2ca02c" display="" d="M0.9999920729479002,-171.99709304477807A172,172,0,0,1,60.432768242682926,-161.03378689742775L40.45199418281145,-108.71815012514602A116,116,0,0,0,0.99999207294792,-115.99568964342616Z"><title>Youtube </title></path><path fill="#2ca02c" display="" d="M62.301122208335144,-160.32021136332776A172,172,0,0,1,119.03978118851948,-124.15124040697057L80.04731510885082,-83.9549125654023A116,116,0,0,0,42.320348148463715,-108.00457459104602Z"><title>Twitch </title></path><path fill="#d62728" display="" d="M120.47531697018933,-122.75869826994914A172,172,0,0,1,141.59449083539494,-97.64732543733732L95.30874151958089,-66.12294450456452A116,116,0,0,0,81.48285089052062,-82.56237042838087Z"><title>Twitch </title></path><path fill="#d62728" display="" d="M142.7203244439363,-95.99431749128465A172,172,0,0,1,168.62715795794497,-33.89515598173688L113.66068285782032,-23.178636118072003A116,116,0,0,0,96.43457512812226,-64.46993655851185Z"><title>Star+</title></path><path fill="#d62728" display="" d="M169.00987818502395,-31.932132341629814A172,172,0,0,1,171.4936189827515,-13.188580219222L115.63306634881985,-9.219217253618972A116,116,0,0,0,114.0434030848993,-21.21561247796494Z"><title>Flow </title></path><path fill="#9467bd" display="" d="M171.63537726947902,-11.193626291939804A172,172,0,0,1,168.32799727814924,35.35088870633077L113.59000325298634,23.522567057754372A116,116,0,0,0,115.77482463554736,-7.224263326336772Z"><title>Youtube </title></path><path fill="#9467bd" display="" d="M167.90557115428646,37.305752577221234A172,172,0,0,1,162.79639463730484,55.50976394378652L109.89756190637479,37.12850504712681A116,116,0,0,0,113.16757712912356,25.477430928644836Z"><title>Flow </title></path><path fill="#9467bd" display="" d="M162.13994276034995,57.398945649466796A172,172,0,0,1,148.28990954284203,87.14414913105598L100.1740392388527,58.490698940710224A116,116,0,0,0,109.24111002941989,39.01768675280708Z"><title>Twitch </title></path><path fill="#ff7f0e" display="" d="M147.26660579284132,88.86251638489583A172,172,0,0,1,101.90636531015195,138.56079066342636L68.98956628315574,93.25470360288568A116,116,0,0,0,99.15073548885198,60.20906619455004Z"><title>Netflix</title></path><path fill="#ff7f0e" display="" d="M100.28834414764175,139.73635184920266A172,172,0,0,1,84.34486648942513,149.8997781748894L57.167275514254314,100.93514061156966A116,116,0,0,0,67.37154512064558,94.430264788662Z"><title>Flow </title></path><path fill="#ff7f0e" display="" d="M82.59618711911834,150.87037440592368A172,172,0,0,1,18.395518727067373,171.0134640628103L12.729950716011343,115.29938575191076A116,116,0,0,0,55.41859614394749,101.90573684260396Z"><title>Star+</title></path><path fill="#e377c2" display="" d="M16.405795853045518,171.21579910285206A172,172,0,0,1,-16.4057958530455,171.21579910285206L-10.740227841989432,115.50172079195251A116,116,0,0,0,10.740227841989446,115.50172079195251Z"><title>Twitch</title></path><path fill="#e377c2" display="" d="M-18.39551872706735,171.0134640628103A172,172,0,0,1,-76.41422525599165,154.09369285771098L-51.243280900245296,104.06789208290209A116,116,0,0,0,-12.729950716011329,115.29938575191076Z"><title>Youtube </title></path><path fill="#e377c2" display="" d="M-78.20080206226054,153.19476021332827A172,172,0,0,1,-130.98919923237312,111.47120562935372L-88.13019584852358,75.42591451020581A116,116,0,0,0,-53.02985770651411,103.16895943851944Z"><title>Amazon </title></path><path fill="#8c564b" display="" d="M-132.2764885928886,109.94057742951603A172,172,0,0,1,-164.33287048894437,50.78097750992828L-110.73258292899784,34.558574592604586A116,116,0,0,0,-89.41748520903903,73.89528631036818Z"><title>Amazon </title></path><path fill="#8c564b" display="" d="M-164.91222290999812,48.86674467245686A172,172,0,0,1,-171.04075085120905,-18.14005370043403L-115.38694831845154,-11.910170349536987A116,116,0,0,0,-111.3119353500516,32.64434175513323Z"><title>Star+</title></path><path fill="#8c564b" display="" d="M-170.81826235671048,-20.12762393910499A172,172,0,0,1,-153.31139862399633,-77.97188629213804L-103.54324894617726,-52.29527318668448A116,116,0,0,0,-115.16445982395298,-13.897740588207864Z"><title>Youtube </title></path><path fill="#1f77b4" display="" d="M-152.39440697714107,-79.74926157705468A172,172,0,0,1,-120.47531697018933,-122.75869826994914L-81.48285089052061,-82.56237042838089A116,116,0,0,0,-102.62625729932209,-54.072648471601056Z"><title>Twitch</title></path><path fill="#1f77b4" display="" d="M-119.03978118851946,-124.1512404069706A172,172,0,0,1,-62.301122208335165,-160.32021136332776L-42.32034814846368,-108.00457459104604A116,116,0,0,0,-80.04731510885082,-83.9549125654023Z"><title>Amazon </title></path><path fill="#1f77b4" display="" d="M-60.43276824268287,-161.03378689742777A172,172,0,0,1,-0.9999920729479593,-171.99709304477807L-0.9999920729479086,-115.99568964342616A116,116,0,0,0,-40.45199418281146,-108.71815012514602Z"><title>Youtube </title></path><path fill="#2ca02c" display="" d="M0.9999920729479221,-229.99782611114838A230,230,0,0,1,81.12688432403245,-215.21716622954372L61.1463613551197,-162.90218688841819A174,174,0,0,0,0.9999920729479173,-173.9971264586115Z"><title>TV</title></path><path fill="#2ca02c" display="" d="M82.99523828968472,-214.50359069544373A230,230,0,0,1,159.42433370549742,-165.78263426112582L120.43235762965243,-125.5868115518644A174,174,0,0,0,63.014715320771955,-162.18861135431817Z"><title>PC</title></path><path fill="#d62728" display="" d="M160.85986948716723,-164.3900921241044A230,230,0,0,1,189.53270716192816,-130.29717155744703L143.24753950191658,-98.77318677984856A174,174,0,0,0,121.86789341132224,-124.19426941484296Z"><title>PC</title></path><path fill="#d62728" display="" d="M190.65854077046956,-128.64416361139436A230,230,0,0,1,225.55601431236732,-44.994270829952924L170.5902299554985,-34.27788563680874A174,174,0,0,0,144.37337311045798,-97.12017883379588Z"><title>TV</title></path><path fill="#d62728" display="" d="M225.9387345394463,-43.031247189845864A230,230,0,0,1,229.34847270919192,-17.299655082140877L173.4886220540561,-13.330341998046412A174,174,0,0,0,170.9729501825775,-32.31486199670167Z"><title>TV</title></path><path fill="#9467bd" display="" d="M229.49023099591943,-15.304701154858675A230,230,0,0,1,225.0202154586208,47.60149824276405L170.28290930547706,35.773325236308A174,174,0,0,0,173.6303803407836,-11.335388070764212Z"><title>TV</title></path><path fill="#9467bd" display="" d="M224.59778933475803,49.556362113654515A230,230,0,0,1,217.58379085236433,74.54725989809803L164.68562288139725,56.16623199188467A174,174,0,0,0,169.86048318161428,37.72818910719847Z"><title>TV</title></path><path fill="#9467bd" display="" d="M216.9273389754094,76.43644160377832A230,230,0,0,1,198.12358477695963,116.82056820237987L150.00831912722276,88.1674780892892A174,174,0,0,0,164.02917100444236,58.055413697564944Z"><title>PC</title></path><path fill="#ff7f0e" display="" d="M197.1002810269589,118.53893545621972A230,230,0,0,1,135.9983408287168,185.48436940032488L103.08195545489541,140.17885168453535A174,174,0,0,0,148.98501537722203,89.88584534312905Z"><title>TV</title></path><path fill="#ff7f0e" display="" d="M134.38031966620662,186.6599305861012A230,230,0,0,1,112.49273607477602,200.61252286537547L85.31548663028624,151.64850062245077A174,174,0,0,0,101.46393429238523,141.35441287031168Z"><title>TV</title></path><path fill="#ff7f0e" display="" d="M110.7440567044692,201.58311909640975A230,230,0,0,1,24.26335556543305,228.71661412478406L18.59785875146371,173.00323595199197A174,174,0,0,0,83.56680725997943,152.61909685348505Z"><title>TV</title></path><path fill="#e377c2" display="" d="M22.273632691411162,228.9189491648258A230,230,0,0,1,-22.273632691411134,228.91894916482582L-16.608135877441807,173.2055709920337A174,174,0,0,0,16.60813587744183,173.2055709920337Z"><title>PC</title></path><path fill="#e377c2" display="" d="M-24.26335556543302,228.71661412478406A230,230,0,0,1,-102.48380808667592,205.9054857939763L-77.31318004482863,155.88031367480602A174,174,0,0,0,-18.59785875146369,173.00323595199197Z"><title>TV</title></path><path fill="#e377c2" display="" d="M-104.27038489294476,205.00655314959363A230,230,0,0,1,-175.3783299286462,148.80336485254267L-132.51986513795703,112.7585267011665A174,174,0,0,0,-79.09975685109747,154.98138103042334Z"><title>Cel</title></path><path fill="#8c564b" display="" d="M-176.66561928916167,147.272736652705A230,230,0,0,1,-219.84676446700308,67.58254325926237L-166.24715048194156,51.36034420284463A174,174,0,0,0,-133.8071544984725,111.22789850132885Z"><title>Cel</title></path><path fill="#8c564b" display="" d="M-220.42611688805684,65.66831042179098A230,230,0,0,1,-228.6814732041247,-24.592352738020015L-173.02837005201135,-18.36254767575071A174,174,0,0,0,-166.82650290299532,49.446111365373234Z"><title>TV</title></path><path fill="#8c564b" display="" d="M-228.4589847096261,-26.57992297669093A230,230,0,0,1,-204.85634195305332,-104.56519096531927L-155.08881769306734,-78.88890052831594A174,174,0,0,0,-172.80588155751278,-20.350117914421627Z"><title>TV</title></path><path fill="#1f77b4" display="" d="M-203.93935030619812,-106.34256625023589A230,230,0,0,1,-160.8598694871672,-164.3900921241044L-121.86789341132223,-124.19426941484298A174,174,0,0,0,-154.17182604621212,-80.66627581323256Z"><title>PC</title></path><path fill="#1f77b4" display="" d="M-159.4243337054974,-165.78263426112582A230,230,0,0,1,-82.9952382896846,-214.5035906954438L-63.01471532077187,-162.18861135431823A174,174,0,0,0,-120.4323576296524,-125.58681155186441Z"><title>Cel</title></path><path fill="#1f77b4" display="" d="M-81.12688432403253,-215.2171662295437A230,230,0,0,1,-0.9999920729478482,-229.99782611114838L-0.9999920729478614,-173.9971264586115A174,174,0,0,0,-61.14636135511976,-162.90218688841816Z"><title>TV</title></path><path fill="#2ca02c" display="" d="M0.9999920729479248,-287.99826391118063A288,288,0,0,1,101.82089505712948,-269.40026972845635L81.8404722011961,-217.0855525130248A232,232,0,0,0,0.9999920729479359,-231.99784485174436Z"><title>TV</title></path><path fill="#2ca02c" display="" d="M103.68924902278172,-268.68669419435633A288,288,0,0,1,199.80868063543693,-207.41381618090435L160.8168999299986,-167.21819487395746A232,232,0,0,0,83.7088261668484,-216.37197697892478Z"><title>PC</title></path><path fill="#d62728" display="" d="M201.24421641710674,-206.0212740438829A288,288,0,0,1,237.4706794477254,-162.94685146585576L191.18574370086463,-131.42302464008085A232,232,0,0,0,162.25243571166843,-165.82565273693604Z"><title>PC</title></path><path fill="#d62728" display="" d="M238.59651305626676,-161.2938435198031A288,288,0,0,1,282.48458085709143,-56.0933291755211L227.51907190785067,-45.37699767713014A232,232,0,0,0,192.311577309406,-129.77001669402821Z"><title>TV</title></path><path fill="#d62728" display="" d="M282.86730108417044,-54.13030553541403A288,288,0,0,1,287.2030319119273,-21.41070901666874L231.34346114416417,-17.44141582093054A232,232,0,0,0,227.90179213492965,-43.41397403702308Z"><title>TV</title></path><path fill="#9467bd" display="" d="M287.34479019865483,-19.415755089386547A288,288,0,0,1,281.71214503405633,59.852045414595615L226.97511314374407,48.023931673537305A232,232,0,0,0,231.48521943089168,-15.44646189364834Z"><title>TV</title></path><path fill="#9467bd" display="" d="M281.2897189101935,61.806909285486086A288,288,0,0,1,272.37090815933084,93.58465893757041L219.47300523614098,75.20372313002088A232,232,0,0,0,226.5526870198813,49.97879554442777Z"><title>TV</title></path><path fill="#9467bd" display="" d="M271.7144562823759,95.47384064325067A288,288,0,0,1,247.95700632106298,146.4968361989307L199.84198175423504,117.84388965296414A232,232,0,0,0,218.8165533591861,77.09290483570115Z"><title>PC</title></path><path fill="#ff7f0e" display="" d="M246.93370257106224,148.21520345277054A288,288,0,0,1,170.09014279408265,232.4077092617381L137.17392234874768,187.10241855053545A232,232,0,0,0,198.81867800423433,119.56225690680395Z"><title>TV</title></path><path fill="#ff7f0e" display="" d="M168.47212163157246,233.5832704475144A288,288,0,0,1,140.64046236679357,251.32500939073796L113.46334909468621,202.36123248344128A232,232,0,0,0,135.55590118623752,188.27797973631172Z"><title>TV</title></path><path fill="#ff7f0e" display="" d="M138.89178299648674,252.29560562177224A288,288,0,0,1,30.131162532198744,286.4194704353359L24.465694105362573,230.70637141601188A232,232,0,0,0,111.71466972437936,203.3318287144756Z"><title>TV</title></path><path fill="#e377c2" display="" d="M28.141439658176857,286.6218054753776A288,288,0,0,1,-28.14143965817682,286.6218054753776L-22.47597123134063,230.90870645605364A232,232,0,0,0,22.475971231340658,230.90870645605364Z"><title>PC</title></path><path fill="#e377c2" display="" d="M-30.131162532198708,286.4194704353359A288,288,0,0,1,-128.55325820403314,257.7170149701552L-103.38275628033455,207.69209350353458A232,232,0,0,0,-24.465694105362545,230.70637141601188Z"><title>TV</title></path><path fill="#e377c2" display="" d="M-130.33983501030198,256.8180823257725A288,288,0,0,1,-219.76723465163622,186.13533402761732L-176.90898460450558,150.0906764799293A232,232,0,0,0,-105.16933308660333,206.7931608591519Z"><title>Cel</title></path><path fill="#8c564b" display="" d="M-221.05452401215166,184.60470582777967A288,288,0,0,1,-275.36037583856154,84.38402347628454L-221.7610304158925,68.16190570165718A232,232,0,0,0,-178.196273965021,148.56004828009173Z"><title>Cel</title></path><path fill="#8c564b" display="" d="M-275.93972825961526,82.46979063881315A288,288,0,0,1,-286.32190212342124,-31.044618928664086L-230.66907782276635,-24.814845081010517A232,232,0,0,0,-222.34038283694625,66.24767286418586Z"><title>TV</title></path><path fill="#8c564b" display="" d="M-286.0994136289227,-33.032189167335A288,288,0,0,1,-256.4010228804844,-131.15836025904457L-206.63374798209617,-105.48219847382579A232,232,0,0,0,-230.44658932826778,-26.802415319681362Z"><title>TV</title></path><path fill="#1f77b4" display="" d="M-255.48403123362922,-132.93573554396116A288,288,0,0,1,-201.2442164171067,-206.02127404388295L-162.2524357116684,-165.82565273693606A232,232,0,0,0,-205.71675633524097,-107.25957375874233Z"><title>PC</title></path><path fill="#1f77b4" display="" d="M-199.8086806354369,-207.41381618090438A288,288,0,0,1,-103.6892490227817,-268.68669419435633L-83.70882616684833,-216.3719769789248A232,232,0,0,0,-160.8168999299986,-167.21819487395746Z"><title>Cel</title></path><path fill="#1f77b4" display="" d="M-101.82089505712945,-269.40026972845635A288,288,0,0,1,-0.99999207294796,-287.99826391118063L-0.9999920729479129,-231.99784485174436A232,232,0,0,0,-81.84047220119614,-217.0855525130248Z"><title>TV</title></path></g><g id="labels" transform="translate(402.5,300)" text-anchor="middle"><text transform="rotate(90) translate(29,0) rotate(180)"><tspan x="0" y="4" style="font-family: Arial, sans-serif; font-size: 10px; fill: black; font-weight: normal; font-style: italic;"/></text><text transform="rotate(-67.93548387096774) translate(87,0) rotate(0)"><tspan x="0" y="4" style="font-family: Arial, sans-serif; font-size: 10px; fill: black; font-weight: normal; font-style: italic;">Lunes</tspan></text><text transform="rotate(-24.967741935483872) translate(87,0) rotate(0)"><tspan x="0" y="4" style="font-family: Arial, sans-serif; font-size: 10px; fill: black; font-weight: normal; font-style: italic;">Martes</tspan></text><text transform="rotate(13.354838709677423) translate(87,0) rotate(0)"><tspan x="0" y="4" style="font-family: Arial, sans-serif; font-size: 10px; fill: black; font-weight: normal; font-style: italic;">Miércoles</tspan></text><text transform="rotate(57.48387096774195) translate(87,0) rotate(0)"><tspan x="0" y="4" style="font-family: Arial, sans-serif; font-size: 10px; fill: black; font-weight: normal; font-style: italic;">Jueves</tspan></text><text transform="rotate(112.06451612903226) translate(87,0) rotate(180)"><tspan x="0" y="4" style="font-family: Arial, sans-serif; font-size: 10px; fill: black; font-weight: normal; font-style: italic;">Viernes</tspan></text><text transform="rotate(173.61290322580646) translate(87,0) rotate(180)"><tspan x="0" y="4" style="font-family: Arial, sans-serif; font-size: 10px; fill: black; font-weight: normal; font-style: italic;">Sábado</tspan></text><text transform="rotate(238.64516129032262) translate(87,0) rotate(180)"><tspan x="0" y="4" style="font-family: Arial, sans-serif; font-size: 10px; fill: black; font-weight: normal; font-style: italic;">Domingo</tspan></text><text transform="rotate(-79.54838709677419) translate(145,0) rotate(0)"><tspan x="0" y="4" style="font-family: Arial, sans-serif; font-size: 10px; fill: black; font-weight: normal; font-style: italic;">Youtube </tspan></text><text transform="rotate(-57.483870967741936) translate(145,0) rotate(0)"><tspan x="0" y="4" style="font-family: Arial, sans-serif; font-size: 10px; fill: black; font-weight: normal; font-style: italic;">Twitch </tspan></text><text transform="rotate(-40.06451612903226) translate(145,0) rotate(0)"><tspan x="0" y="4" style="font-family: Arial, sans-serif; font-size: 10px; fill: black; font-weight: normal; font-style: italic;">Twitch </tspan></text><text transform="rotate(-22.64516129032259) translate(145,0) rotate(0)"><tspan x="0" y="4" style="font-family: Arial, sans-serif; font-size: 10px; fill: black; font-weight: normal; font-style: italic;">Star+</tspan></text><text transform="rotate(-7.548387096774206) translate(145,0) rotate(0)"><tspan x="0" y="4" style="font-family: Arial, sans-serif; font-size: 10px; fill: black; font-weight: normal; font-style: italic;">Flow </tspan></text><text transform="rotate(4.064516129032242) translate(145,0) rotate(0)"><tspan x="0" y="4" style="font-family: Arial, sans-serif; font-size: 10px; fill: black; font-weight: normal; font-style: italic;">Youtube </tspan></text><text transform="rotate(15.677419354838705) translate(145,0) rotate(0)"><tspan x="0" y="4" style="font-family: Arial, sans-serif; font-size: 10px; fill: black; font-weight: normal; font-style: italic;">Flow </tspan></text><text transform="rotate(24.967741935483886) translate(145,0) rotate(0)"><tspan x="0" y="4" style="font-family: Arial, sans-serif; font-size: 10px; fill: black; font-weight: normal; font-style: italic;">Twitch </tspan></text><text transform="rotate(42.387096774193566) translate(145,0) rotate(0)"><tspan x="0" y="4" style="font-family: Arial, sans-serif; font-size: 10px; fill: black; font-weight: normal; font-style: italic;">Netflix</tspan></text><text transform="rotate(57.48387096774195) translate(145,0) rotate(0)"><tspan x="0" y="4" style="font-family: Arial, sans-serif; font-size: 10px; fill: black; font-weight: normal; font-style: italic;">Flow </tspan></text><text transform="rotate(72.58064516129033) translate(145,0) rotate(0)"><tspan x="0" y="4" style="font-family: Arial, sans-serif; font-size: 10px; fill: black; font-weight: normal; font-style: italic;">Star+</tspan></text><text transform="rotate(90) translate(145,0) rotate(180)"><tspan x="0" y="4" style="font-family: Arial, sans-serif; font-size: 10px; fill: black; font-weight: normal; font-style: italic;">Twitch</tspan></text><text transform="rotate(106.25806451612905) translate(145,0) rotate(180)"><tspan x="0" y="4" style="font-family: Arial, sans-serif; font-size: 10px; fill: black; font-weight: normal; font-style: italic;">Youtube </tspan></text><text transform="rotate(128.3225806451613) translate(145,0) rotate(180)"><tspan x="0" y="4" style="font-family: Arial, sans-serif; font-size: 10px; fill: black; font-weight: normal; font-style: italic;">Amazon </tspan></text><text transform="rotate(151.54838709677418) translate(145,0) rotate(180)"><tspan x="0" y="4" style="font-family: Arial, sans-serif; font-size: 10px; fill: black; font-weight: normal; font-style: italic;">Amazon </tspan></text><text transform="rotate(174.77419354838713) translate(145,0) rotate(180)"><tspan x="0" y="4" style="font-family: Arial, sans-serif; font-size: 10px; fill: black; font-weight: normal; font-style: italic;">Star+</tspan></text><text transform="rotate(196.8387096774194) translate(145,0) rotate(180)"><tspan x="0" y="4" style="font-family: Arial, sans-serif; font-size: 10px; fill: black; font-weight: normal; font-style: italic;">Youtube </tspan></text><text transform="rotate(216.5806451612903) translate(145,0) rotate(180)"><tspan x="0" y="4" style="font-family: Arial, sans-serif; font-size: 10px; fill: black; font-weight: normal; font-style: italic;">Twitch</tspan></text><text transform="rotate(237.48387096774195) translate(145,0) rotate(180)"><tspan x="0" y="4" style="font-family: Arial, sans-serif; font-size: 10px; fill: black; font-weight: normal; font-style: italic;">Amazon </tspan></text><text transform="rotate(259.5483870967742) translate(145,0) rotate(180)"><tspan x="0" y="4" style="font-family: Arial, sans-serif; font-size: 10px; fill: black; font-weight: normal; font-style: italic;">Youtube </tspan></text><text transform="rotate(-79.54838709677419) translate(203,0) rotate(0)"><tspan x="0" y="4" style="font-family: Arial, sans-serif; font-size: 10px; fill: black; font-weight: normal; font-style: italic;">TV</tspan></text><text transform="rotate(-57.483870967741936) translate(203,0) rotate(0)"><tspan x="0" y="4" style="font-family: Arial, sans-serif; font-size: 10px; fill: black; font-weight: normal; font-style: italic;">PC</tspan></text><text transform="rotate(-40.06451612903226) translate(203,0) rotate(0)"><tspan x="0" y="4" style="font-family: Arial, sans-serif; font-size: 10px; fill: black; font-weight: normal; font-style: italic;">PC</tspan></text><text transform="rotate(-22.64516129032259) translate(203,0) rotate(0)"><tspan x="0" y="4" style="font-family: Arial, sans-serif; font-size: 10px; fill: black; font-weight: normal; font-style: italic;">TV</tspan></text><text transform="rotate(-7.548387096774206) translate(203,0) rotate(0)"><tspan x="0" y="4" style="font-family: Arial, sans-serif; font-size: 10px; fill: black; font-weight: normal; font-style: italic;">TV</tspan></text><text transform="rotate(4.064516129032242) translate(203,0) rotate(0)"><tspan x="0" y="4" style="font-family: Arial, sans-serif; font-size: 10px; fill: black; font-weight: normal; font-style: italic;">TV</tspan></text><text transform="rotate(15.677419354838705) translate(203,0) rotate(0)"><tspan x="0" y="4" style="font-family: Arial, sans-serif; font-size: 10px; fill: black; font-weight: normal; font-style: italic;">TV</tspan></text><text transform="rotate(24.967741935483886) translate(203,0) rotate(0)"><tspan x="0" y="4" style="font-family: Arial, sans-serif; font-size: 10px; fill: black; font-weight: normal; font-style: italic;">PC</tspan></text><text transform="rotate(42.387096774193566) translate(203,0) rotate(0)"><tspan x="0" y="4" style="font-family: Arial, sans-serif; font-size: 10px; fill: black; font-weight: normal; font-style: italic;">TV</tspan></text><text transform="rotate(57.48387096774195) translate(203,0) rotate(0)"><tspan x="0" y="4" style="font-family: Arial, sans-serif; font-size: 10px; fill: black; font-weight: normal; font-style: italic;">TV</tspan></text><text transform="rotate(72.58064516129033) translate(203,0) rotate(0)"><tspan x="0" y="4" style="font-family: Arial, sans-serif; font-size: 10px; fill: black; font-weight: normal; font-style: italic;">TV</tspan></text><text transform="rotate(90) translate(203,0) rotate(180)"><tspan x="0" y="4" style="font-family: Arial, sans-serif; font-size: 10px; fill: black; font-weight: normal; font-style: italic;">PC</tspan></text><text transform="rotate(106.25806451612905) translate(203,0) rotate(180)"><tspan x="0" y="4" style="font-family: Arial, sans-serif; font-size: 10px; fill: black; font-weight: normal; font-style: italic;">TV</tspan></text><text transform="rotate(128.3225806451613) translate(203,0) rotate(180)"><tspan x="0" y="4" style="font-family: Arial, sans-serif; font-size: 10px; fill: black; font-weight: normal; font-style: italic;">Cel</tspan></text><text transform="rotate(151.54838709677418) translate(203,0) rotate(180)"><tspan x="0" y="4" style="font-family: Arial, sans-serif; font-size: 10px; fill: black; font-weight: normal; font-style: italic;">Cel</tspan></text><text transform="rotate(174.77419354838713) translate(203,0) rotate(180)"><tspan x="0" y="4" style="font-family: Arial, sans-serif; font-size: 10px; fill: black; font-weight: normal; font-style: italic;">TV</tspan></text><text transform="rotate(196.8387096774194) translate(203,0) rotate(180)"><tspan x="0" y="4" style="font-family: Arial, sans-serif; font-size: 10px; fill: black; font-weight: normal; font-style: italic;">TV</tspan></text><text transform="rotate(216.5806451612903) translate(203,0) rotate(180)"><tspan x="0" y="4" style="font-family: Arial, sans-serif; font-size: 10px; fill: black; font-weight: normal; font-style: italic;">PC</tspan></text><text transform="rotate(237.48387096774195) translate(203,0) rotate(180)"><tspan x="0" y="4" style="font-family: Arial, sans-serif; font-size: 10px; fill: black; font-weight: normal; font-style: italic;">Cel</tspan></text><text transform="rotate(259.5483870967742) translate(203,0) rotate(180)"><tspan x="0" y="4" style="font-family: Arial, sans-serif; font-size: 10px; fill: black; font-weight: normal; font-style: italic;">TV</tspan></text><text transform="rotate(-79.54838709677419) translate(261,0) rotate(0)"><tspan x="0" y="-2" style="font-family: Arial, sans-serif; font-size: 10px; fill: black; font-weight: bold;">ARG</tspan><tspan x="0" y="10" style="font-family: Arial, sans-serif; font-size: 10px; fill: black; font-weight: normal;">Deporte</tspan></text><text transform="rotate(-57.483870967741936) translate(261,0) rotate(0)"><tspan x="0" y="-2" style="font-family: Arial, sans-serif; font-size: 10px; fill: black; font-weight: bold;">ARG</tspan><tspan x="0" y="10" style="font-family: Arial, sans-serif; font-size: 10px; fill: black; font-weight: normal;">Radio</tspan></text><text transform="rotate(-40.06451612903226) translate(261,0) rotate(0)"><tspan x="0" y="-2" style="font-family: Arial, sans-serif; font-size: 10px; fill: black; font-weight: bold;">ARG</tspan><tspan x="0" y="10" style="font-family: Arial, sans-serif; font-size: 10px; fill: black; font-weight: normal;">Radio</tspan></text><text transform="rotate(-22.64516129032259) translate(261,0) rotate(0)"><tspan x="0" y="-2" style="font-family: Arial, sans-serif; font-size: 10px; fill: black; font-weight: bold;">ARG</tspan><tspan x="0" y="10" style="font-family: Arial, sans-serif; font-size: 10px; fill: black; font-weight: normal;">Serie</tspan></text><text transform="rotate(-7.548387096774206) translate(261,0) rotate(0)"><tspan x="0" y="-2" style="font-family: Arial, sans-serif; font-size: 10px; fill: black; font-weight: bold;">ARG</tspan><tspan x="0" y="10" style="font-family: Arial, sans-serif; font-size: 10px; fill: black; font-weight: normal;">Noticias</tspan></text><text transform="rotate(4.064516129032242) translate(261,0) rotate(0)"><tspan x="0" y="-2" style="font-family: Arial, sans-serif; font-size: 10px; fill: black; font-weight: bold;">ARG</tspan><tspan x="0" y="10" style="font-family: Arial, sans-serif; font-size: 10px; fill: black; font-weight: normal;">Deporte</tspan></text><text transform="rotate(15.677419354838705) translate(261,0) rotate(0)"><tspan x="0" y="-2" style="font-family: Arial, sans-serif; font-size: 10px; fill: black; font-weight: bold;">ARG</tspan><tspan x="0" y="10" style="font-family: Arial, sans-serif; font-size: 10px; fill: black; font-weight: normal;">Noticias</tspan></text><text transform="rotate(24.967741935483886) translate(261,0) rotate(0)"><tspan x="0" y="-2" style="font-family: Arial, sans-serif; font-size: 10px; fill: black; font-weight: bold;">ARG</tspan><tspan x="0" y="10" style="font-family: Arial, sans-serif; font-size: 10px; fill: black; font-weight: normal;">Radio</tspan></text><text transform="rotate(42.387096774193566) translate(261,0) rotate(0)"><tspan x="0" y="-2" style="font-family: Arial, sans-serif; font-size: 10px; fill: black; font-weight: bold;">AUS</tspan><tspan x="0" y="10" style="font-family: Arial, sans-serif; font-size: 10px; fill: black; font-weight: normal;">Pelicula</tspan></text><text transform="rotate(57.48387096774195) translate(261,0) rotate(0)"><tspan x="0" y="-2" style="font-family: Arial, sans-serif; font-size: 10px; fill: black; font-weight: bold;">ARG</tspan><tspan x="0" y="10" style="font-family: Arial, sans-serif; font-size: 10px; fill: black; font-weight: normal;">Noticias</tspan></text><text transform="rotate(72.58064516129033) translate(261,0) rotate(0)"><tspan x="0" y="-2" style="font-family: Arial, sans-serif; font-size: 10px; fill: black; font-weight: bold;">ARG</tspan><tspan x="0" y="10" style="font-family: Arial, sans-serif; font-size: 10px; fill: black; font-weight: normal;">Serie</tspan></text><text transform="rotate(90) translate(261,0) rotate(180)"><tspan x="0" y="-2" style="font-family: Arial, sans-serif; font-size: 10px; fill: black; font-weight: bold;">ESP</tspan><tspan x="0" y="10" style="font-family: Arial, sans-serif; font-size: 10px; fill: black; font-weight: normal;">Games</tspan></text><text transform="rotate(106.25806451612905) translate(261,0) rotate(180)"><tspan x="0" y="-2" style="font-family: Arial, sans-serif; font-size: 10px; fill: black; font-weight: bold;">ARG</tspan><tspan x="0" y="10" style="font-family: Arial, sans-serif; font-size: 10px; fill: black; font-weight: normal;">Radio</tspan></text><text transform="rotate(128.3225806451613) translate(261,0) rotate(180)"><tspan x="0" y="-2" style="font-family: Arial, sans-serif; font-size: 10px; fill: black; font-weight: bold;">EEUU</tspan><tspan x="0" y="10" style="font-family: Arial, sans-serif; font-size: 10px; fill: black; font-weight: normal;">Drama </tspan></text><text transform="rotate(151.54838709677418) translate(261,0) rotate(180)"><tspan x="0" y="-2" style="font-family: Arial, sans-serif; font-size: 10px; fill: black; font-weight: bold;">EEUU</tspan><tspan x="0" y="10" style="font-family: Arial, sans-serif; font-size: 10px; fill: black; font-weight: normal;">Drama </tspan></text><text transform="rotate(174.77419354838713) translate(261,0) rotate(180)"><tspan x="0" y="-2" style="font-family: Arial, sans-serif; font-size: 10px; fill: black; font-weight: bold;">ARG</tspan><tspan x="0" y="10" style="font-family: Arial, sans-serif; font-size: 10px; fill: black; font-weight: normal;">Serie</tspan></text><text transform="rotate(196.8387096774194) translate(261,0) rotate(180)"><tspan x="0" y="-2" style="font-family: Arial, sans-serif; font-size: 10px; fill: black; font-weight: bold;">ARG</tspan><tspan x="0" y="10" style="font-family: Arial, sans-serif; font-size: 10px; fill: black; font-weight: normal;">Deporte</tspan></text><text transform="rotate(216.5806451612903) translate(261,0) rotate(180)"><tspan x="0" y="-2" style="font-family: Arial, sans-serif; font-size: 10px; fill: black; font-weight: bold;">ARG</tspan><tspan x="0" y="10" style="font-family: Arial, sans-serif; font-size: 10px; fill: black; font-weight: normal;">Games</tspan></text><text transform="rotate(237.48387096774195) translate(261,0) rotate(180)"><tspan x="0" y="-2" style="font-family: Arial, sans-serif; font-size: 10px; fill: black; font-weight: bold;">EEUU</tspan><tspan x="0" y="10" style="font-family: Arial, sans-serif; font-size: 10px; fill: black; font-weight: normal;">Drama </tspan></text><text transform="rotate(259.5483870967742) translate(261,0) rotate(180)"><tspan x="0" y="-2" style="font-family: Arial, sans-serif; font-size: 10px; fill: black; font-weight: bold;">MEX</tspan><tspan x="0" y="10" style="font-family: Arial, sans-serif; font-size: 10px; fill: black; font-weight: normal;">IRL</tspan></text></g><g id="legend" transform="translate(805,10)"><g transform="translate(5,0)"><g class="legendColor" transform="translate(0,0)"><g class="legendCells" transform="translate(0,16)"><g class="cell" transform="translate(0, 0)"><rect class="swatch" height="15" width="15" style="fill: rgb(31, 119, 180);"/><text class="label" transform="translate( 20, 12.5)" font-family="&quot;Arial&quot;, sans-serif" font-size="10px"><tspan x="0" dy="0em">Domingo</tspan></text></g><g class="cell" transform="translate(0, 21)"><rect class="swatch" height="15" width="15" style="fill: rgb(255, 127, 14);"/><text class="label" transform="translate( 20, 12.5)" font-family="&quot;Arial&quot;, sans-serif" font-size="10px"><tspan x="0" dy="0em">Jueves</tspan></text></g><g class="cell" transform="translate(0, 42)"><rect class="swatch" height="15" width="15" style="fill: rgb(44, 160, 44);"/><text class="label" transform="translate( 20, 12.5)" font-family="&quot;Arial&quot;, sans-serif" font-size="10px"><tspan x="0" dy="0em">Lunes</tspan></text></g><g class="cell" transform="translate(0, 63)"><rect class="swatch" height="15" width="15" style="fill: rgb(214, 39, 40);"/><text class="label" transform="translate( 20, 12.5)" font-family="&quot;Arial&quot;, sans-serif" font-size="10px"><tspan x="0" dy="0em">Martes</tspan></text></g><g class="cell" transform="translate(0, 84)"><rect class="swatch" height="15" width="15" style="fill: rgb(148, 103, 189);"/><text class="label" transform="translate( 20, 12.5)" font-family="&quot;Arial&quot;, sans-serif" font-size="10px"><tspan x="0" dy="0em">Miércoles</tspan></text></g><g class="cell" transform="translate(0, 105)"><rect class="swatch" height="15" width="15" style="fill: rgb(140, 86, 75);"/><text class="label" transform="translate( 20, 12.5)" font-family="&quot;Arial&quot;, sans-serif" font-size="10px"><tspan x="0" dy="0em">Sábado</tspan></text></g><g class="cell" transform="translate(0, 126)"><rect class="swatch" height="15" width="15" style="fill: rgb(227, 119, 194);"/><text class="label" transform="translate( 20, 12.5)" font-family="&quot;Arial&quot;, sans-serif" font-size="10px"><tspan x="0" dy="0em">Viernes</tspan></text></g></g><text class="legendTitle" font-family="&quot;Arial&quot;, sans-serif" font-size="12px" font-weight="bold"><tspan x="0" dy="0em">Dia de Semana</tspan></text></g></g></g></svg>