<?xml version="1.0" standalone="no"?>
<!DOCTYPE svg PUBLIC "-//W3C//DTD SVG 20010904//EN"
 "http://www.w3.org/TR/2001/REC-SVG-20010904/DTD/svg10.dtd">
<svg version="1.0" xmlns="http://www.w3.org/2000/svg"
 width="1820.000000pt" height="797.000000pt" viewBox="0 0 1820.000000 797.000000"
 preserveAspectRatio="xMidYMid meet">

<g transform="translate(0.000000,797.000000) scale(0.100000,-0.100000)"
fill="#000000" stroke="none">
<path d="M621 7813 c1 -37 4 -56 6 -41 3 22 10 27 35 30 67 7 62 70 -6 76
l-36 3 1 -68z m69 27 c0 -16 -7 -20 -30 -20 -23 0 -30 4 -30 20 0 16 7 20 30
20 23 0 30 -4 30 -20z"/>
<path d="M980 7870 c0 -5 5 -10 10 -10 6 0 10 5 10 10 0 6 -4 10 -10 10 -5 0
-10 -4 -10 -10z"/>
<path d="M3000 7818 c0 -62 1 -63 28 -65 35 -2 52 13 52 47 0 32 -23 55 -45
46 -10 -4 -15 1 -15 14 0 11 -4 20 -10 20 -6 0 -10 -27 -10 -62z m64 -3 c8
-22 -4 -45 -24 -45 -10 0 -20 7 -24 15 -8 22 4 45 24 45 10 0 20 -7 24 -15z"/>
<path d="M3360 7860 c0 -13 -5 -18 -15 -14 -22 9 -45 -14 -45 -46 0 -33 16
-48 53 -48 27 0 27 1 27 64 0 36 -4 64 -10 64 -5 0 -10 -9 -10 -20z m-5 -60
c0 -16 -6 -26 -18 -28 -19 -4 -32 20 -23 44 9 25 41 13 41 -16z"/>
<path d="M4170 7860 c0 -13 -5 -18 -15 -14 -22 9 -45 -14 -45 -46 0 -33 16
-48 53 -48 27 0 27 1 27 64 0 36 -4 64 -10 64 -5 0 -10 -9 -10 -20z m-5 -60
c0 -16 -6 -26 -18 -28 -19 -4 -32 20 -23 44 9 25 41 13 41 -16z"/>
<path d="M4411 7868 c-1 -9 -7 -19 -13 -22 -10 -5 -10 -7 0 -12 6 -3 12 -23
12 -45 0 -29 4 -39 16 -39 14 0 14 3 4 15 -7 9 -10 29 -8 48 3 17 2 41 -3 52
-6 16 -8 16 -8 3z"/>
<path d="M730 7799 c0 -27 5 -49 10 -49 6 0 10 18 10 40 0 29 4 40 15 40 8 0
15 4 15 9 0 5 -11 9 -25 9 -23 0 -25 -4 -25 -49z"/>
<path d="M802 7838 c-15 -15 -15 -61 0 -76 16 -16 43 -15 58 3 11 13 8 14 -18
9 -17 -4 -32 -1 -36 5 -5 7 5 11 28 11 28 0 36 4 36 18 0 22 -19 42 -40 42 -9
0 -21 -5 -28 -12z m53 -18 c4 -6 -7 -10 -25 -10 -18 0 -29 4 -25 10 3 6 15 10
25 10 10 0 22 -4 25 -10z"/>
<path d="M901 7836 c-32 -38 11 -108 46 -74 16 16 15 17 -13 15 -25 -2 -29 2
-29 23 0 20 5 25 23 24 12 0 21 4 19 10 -6 17 -33 18 -46 2z"/>
<path d="M980 7800 c0 -27 5 -50 10 -50 6 0 10 23 10 50 0 28 -4 50 -10 50 -5
0 -10 -22 -10 -50z"/>
<path d="M1031 7836 c-31 -37 9 -103 47 -80 36 23 23 94 -18 94 -10 0 -23 -6
-29 -14z m53 -21 c8 -22 -4 -45 -24 -45 -10 0 -20 7 -24 15 -8 22 4 45 24 45
10 0 20 -7 24 -15z"/>
<path d="M1171 7795 c1 -27 3 -41 6 -30 2 11 6 30 9 43 8 40 34 27 34 -18 0
-22 5 -40 10 -40 6 0 10 18 10 40 0 29 4 40 15 40 11 0 15 -11 15 -40 0 -22 5
-40 10 -40 6 0 10 20 10 45 0 48 -18 67 -44 46 -7 -6 -16 -7 -20 -3 -4 4 -19
7 -32 7 -22 1 -24 -2 -23 -50z"/>
<path d="M1320 7835 c-11 -13 -8 -14 21 -10 l34 5 -33 -15 c-25 -12 -33 -21
-30 -38 2 -18 10 -22 41 -24 36 -1 37 0 37 36 0 56 -40 82 -70 46z m50 -44 c0
-15 -19 -23 -38 -16 -14 5 -14 7 -2 15 19 12 40 13 40 1z"/>
<path d="M1417 7843 c-17 -16 -5 -42 23 -52 39 -13 39 -25 0 -19 -19 3 -29 1
-27 -6 2 -6 17 -11 33 -11 24 0 29 4 29 25 0 18 -6 26 -22 28 -13 2 -23 8 -23
14 0 6 11 8 27 3 23 -5 25 -4 14 9 -14 16 -42 21 -54 9z"/>
<path d="M1561 7836 c-32 -38 11 -108 46 -74 16 16 15 17 -13 15 -25 -2 -29 2
-29 23 0 20 5 25 23 24 12 0 21 4 19 10 -6 17 -33 18 -46 2z"/>
<path d="M1650 7835 c-11 -13 -8 -14 21 -10 l34 5 -33 -15 c-25 -12 -33 -21
-30 -38 2 -18 10 -22 41 -24 36 -1 37 0 37 36 0 56 -40 82 -70 46z m50 -44 c0
-15 -19 -23 -38 -16 -14 5 -14 7 -2 15 19 12 40 13 40 1z"/>
<path d="M1740 7799 c0 -27 5 -49 10 -49 6 0 10 18 10 40 0 29 4 40 15 40 8 0
15 4 15 9 0 5 -11 9 -25 9 -23 0 -25 -4 -25 -49z"/>
<path d="M1811 7836 c-31 -37 9 -103 47 -80 36 23 23 94 -18 94 -10 0 -23 -6
-29 -14z m53 -21 c8 -22 -4 -45 -24 -45 -10 0 -20 7 -24 15 -8 22 4 45 24 45
10 0 20 -7 24 -15z"/>
<path d="M1950 7778 c0 -39 4 -68 10 -68 6 0 10 11 10 25 0 18 4 23 15 19 22
-9 45 14 45 46 0 34 -17 49 -52 47 -28 -2 -28 -3 -28 -69z m64 37 c8 -23 -4
-45 -25 -45 -13 0 -19 7 -19 23 0 37 32 53 44 22z"/>
<path d="M2061 7836 c-31 -37 9 -103 47 -80 36 23 23 94 -18 94 -10 0 -23 -6
-29 -14z m53 -21 c8 -22 -4 -45 -24 -45 -20 0 -32 23 -24 45 4 8 14 15 24 15
10 0 20 -7 24 -15z"/>
<path d="M2150 7799 c0 -27 5 -49 10 -49 6 0 10 18 10 40 0 29 4 40 15 40 8 0
15 4 15 9 0 5 -11 9 -25 9 -23 0 -25 -4 -25 -49z"/>
<path d="M2272 7838 c-7 -7 -12 -24 -12 -38 0 -45 43 -67 70 -35 11 13 8 14
-18 9 -17 -4 -32 -1 -36 5 -5 7 5 11 28 11 28 0 36 4 36 18 0 22 -19 42 -40
42 -9 0 -21 -5 -28 -12z m53 -18 c4 -6 -7 -10 -25 -10 -18 0 -29 4 -25 10 3 6
15 10 25 10 10 0 22 -4 25 -10z"/>
<path d="M2361 7795 c1 -27 3 -41 6 -30 2 11 6 30 9 43 8 40 34 27 34 -18 0
-22 5 -40 10 -40 6 0 10 18 10 40 0 29 4 40 15 40 11 0 15 -11 15 -40 0 -22 5
-40 10 -40 6 0 10 20 10 45 0 48 -18 67 -44 46 -7 -6 -16 -7 -20 -3 -4 4 -19
7 -32 7 -22 1 -24 -2 -23 -50z"/>
<path d="M2500 7778 c0 -39 4 -68 10 -68 6 0 10 11 10 25 0 18 4 23 15 19 22
-9 45 14 45 46 0 34 -17 49 -52 47 -28 -2 -28 -3 -28 -69z m64 37 c8 -23 -4
-45 -25 -45 -13 0 -19 7 -19 23 0 37 32 53 44 22z"/>
<path d="M2600 7799 c0 -27 5 -49 10 -49 6 0 10 18 10 40 0 29 4 40 15 40 8 0
15 4 15 9 0 5 -11 9 -25 9 -23 0 -25 -4 -25 -49z"/>
<path d="M2672 7838 c-7 -7 -12 -24 -12 -38 0 -45 43 -67 70 -35 11 13 8 14
-18 9 -17 -4 -32 -1 -36 5 -5 7 5 11 28 11 28 0 36 4 36 18 0 22 -19 42 -40
42 -9 0 -21 -5 -28 -12z m53 -18 c4 -6 -7 -10 -25 -10 -18 0 -29 4 -25 10 3 6
15 10 25 10 10 0 22 -4 25 -10z"/>
<path d="M2767 7843 c-17 -16 -5 -42 23 -52 39 -13 39 -25 0 -19 -19 3 -29 1
-27 -6 2 -6 17 -11 33 -11 24 0 29 4 29 25 0 18 -6 26 -22 28 -13 2 -23 8 -23
14 0 6 11 8 27 3 23 -5 25 -4 14 9 -14 16 -42 21 -54 9z"/>
<path d="M2860 7835 c-11 -13 -8 -14 21 -10 l34 5 -33 -15 c-25 -12 -33 -21
-30 -38 2 -18 10 -22 41 -24 36 -1 37 0 37 36 0 56 -40 82 -70 46z m50 -44 c0
-15 -19 -23 -38 -16 -14 5 -14 7 -2 15 19 12 40 13 40 1z"/>
<path d="M3110 7835 c-11 -13 -8 -14 21 -10 l34 5 -33 -15 c-25 -12 -33 -21
-30 -38 2 -18 10 -22 41 -24 36 -1 37 0 37 36 0 56 -40 82 -70 46z m50 -44 c0
-15 -19 -23 -38 -16 -14 5 -14 7 -2 15 19 12 40 13 40 1z"/>
<path d="M3200 7799 c0 -57 17 -66 22 -12 2 27 8 39 21 41 14 3 17 -4 17 -37
0 -23 5 -41 10 -41 14 0 12 76 -2 88 -7 5 -25 10 -40 10 -27 0 -28 -3 -28 -49z"/>
<path d="M3412 7838 c-7 -7 -12 -24 -12 -38 0 -45 43 -67 70 -35 11 13 8 14
-18 9 -17 -4 -32 -1 -36 5 -5 7 5 11 28 11 28 0 36 4 36 18 0 22 -19 42 -40
42 -9 0 -21 -5 -28 -12z m53 -18 c4 -6 -7 -10 -25 -10 -18 0 -29 4 -25 10 3 6
15 10 25 10 10 0 22 -4 25 -10z"/>
<path d="M3500 7799 c0 -27 5 -49 10 -49 6 0 10 18 10 40 0 29 4 40 15 40 8 0
15 4 15 9 0 5 -11 9 -25 9 -23 0 -25 -4 -25 -49z"/>
<path d="M3570 7835 c-11 -13 -8 -14 21 -10 l34 5 -33 -15 c-25 -12 -33 -21
-30 -38 2 -18 10 -22 41 -24 36 -1 37 0 37 36 0 56 -40 82 -70 46z m50 -44 c0
-15 -19 -23 -38 -16 -14 5 -14 7 -2 15 19 12 40 13 40 1z"/>
<path d="M3710 7841 c0 -6 7 -29 17 -52 15 -39 15 -43 0 -54 -21 -15 -22 -25
-3 -25 7 0 18 12 24 28 34 89 43 145 13 77 l-18 -40 -7 32 c-7 31 -26 56 -26
34z"/>
<path d="M3850 7778 c0 -39 4 -68 10 -68 6 0 10 11 10 25 0 18 4 23 15 19 22
-9 45 14 45 46 0 34 -17 49 -52 47 -28 -2 -28 -3 -28 -69z m64 37 c8 -23 -4
-45 -25 -45 -13 0 -19 7 -19 23 0 37 32 53 44 22z"/>
<path d="M3950 7799 c0 -27 5 -49 10 -49 6 0 10 18 10 40 0 29 4 40 15 40 8 0
15 4 15 9 0 5 -11 9 -25 9 -23 0 -25 -4 -25 -49z"/>
<path d="M4021 7836 c-31 -37 9 -103 47 -80 36 23 23 94 -18 94 -10 0 -23 -6
-29 -14z m53 -21 c8 -22 -4 -45 -24 -45 -10 0 -20 7 -24 15 -8 22 4 45 24 45
10 0 20 -7 24 -15z"/>
<path d="M4210 7811 c0 -44 13 -59 53 -59 26 0 27 3 27 49 0 57 -17 66 -22 12
-2 -27 -8 -39 -20 -41 -15 -3 -18 4 -18 37 0 23 -4 41 -10 41 -5 0 -10 -17
-10 -39z"/>
<path d="M4321 7836 c-32 -38 11 -108 46 -74 16 16 15 17 -13 15 -25 -2 -29 2
-29 23 0 20 5 25 23 24 12 0 21 4 19 10 -6 17 -33 18 -46 2z"/>
<path d="M4461 7836 c-31 -37 9 -103 47 -80 36 23 23 94 -18 94 -10 0 -23 -6
-29 -14z m53 -21 c8 -22 -4 -45 -24 -45 -10 0 -20 7 -24 15 -8 22 4 45 24 45
10 0 20 -7 24 -15z"/>
<path d="M267 7343 c-3 -5 5 -8 18 -8 13 0 21 3 18 8 -2 4 -10 7 -18 7 -8 0
-16 -3 -18 -7z"/>
<path d="M334 7336 c-10 -25 0 -71 16 -72 9 0 10 1 3 3 -20 7 -16 71 5 76 16
4 16 5 -1 6 -10 0 -20 -5 -23 -13z"/>
<path d="M404 7336 c-10 -25 0 -71 16 -72 9 0 10 1 3 3 -20 7 -16 71 5 76 16
4 16 5 -1 6 -10 0 -20 -5 -23 -13z"/>
<path d="M474 7336 c-10 -25 0 -71 16 -72 9 0 10 1 3 3 -20 7 -16 71 5 76 16
4 16 5 -1 6 -10 0 -20 -5 -23 -13z"/>
<path d="M372 7305 c0 -16 2 -22 5 -12 2 9 2 23 0 30 -3 6 -5 -1 -5 -18z"/>
<path d="M442 7305 c0 -16 2 -22 5 -12 2 9 2 23 0 30 -3 6 -5 -1 -5 -18z"/>
<path d="M512 7305 c0 -16 2 -22 5 -12 2 9 2 23 0 30 -3 6 -5 -1 -5 -18z"/>
<path d="M282 7297 c-29 -31 -28 -37 6 -36 24 2 25 2 4 6 l-24 5 23 24 c12 13
20 24 17 24 -2 0 -14 -10 -26 -23z"/>
<path d="M279 5703 c-8 -10 -9 -14 -2 -10 8 5 13 -5 16 -30 3 -35 4 -34 5 10
2 52 1 55 -19 30z"/>
<path d="M348 5713 c6 -2 18 -2 25 0 6 3 1 5 -13 5 -14 0 -19 -2 -12 -5z"/>
<path d="M404 5706 c-10 -25 0 -71 16 -72 9 0 10 1 3 3 -20 7 -16 71 5 76 16
4 16 5 -1 6 -10 0 -20 -5 -23 -13z"/>
<path d="M474 5706 c-10 -25 0 -71 16 -72 9 0 10 1 3 3 -20 7 -16 71 5 76 16
4 16 5 -1 6 -10 0 -20 -5 -23 -13z"/>
<path d="M330 5687 c0 -7 11 -12 24 -12 28 0 26 10 -4 18 -11 3 -20 0 -20 -6z"/>
<path d="M442 5675 c0 -16 2 -22 5 -12 2 9 2 23 0 30 -3 6 -5 -1 -5 -18z"/>
<path d="M512 5675 c0 -16 2 -22 5 -12 2 9 2 23 0 30 -3 6 -5 -1 -5 -18z"/>
<path d="M337 5638 c2 -5 10 -8 18 -8 8 0 16 3 18 8 3 4 -5 7 -18 7 -13 0 -21
-3 -18 -7z"/>
<path d="M15811 4643 c1 -32 4 -46 6 -31 3 22 10 27 36 30 27 2 32 7 32 28 0
22 -5 25 -37 28 l-38 3 1 -58z m67 30 c-2 -11 -14 -19 -31 -21 -22 -3 -27 1
-27 17 0 17 6 21 31 21 24 0 30 -4 27 -17z"/>
<path d="M16090 4682 c0 -13 -7 -18 -22 -18 -20 1 -23 -4 -23 -34 0 -31 3 -35
28 -36 26 -1 27 1 27 52 0 30 -2 54 -5 54 -3 0 -5 -8 -5 -18z m-5 -52 c0 -36
-29 -33 -33 3 -3 23 0 28 15 25 12 -2 18 -12 18 -28z"/>
<path d="M16278 4680 c-2 -6 -2 -29 0 -51 3 -28 9 -39 21 -39 12 0 13 2 3 9
-7 4 -12 23 -10 44 2 36 -6 59 -14 37z"/>
<path d="M15911 4625 c2 -33 3 -35 6 -10 2 17 11 35 20 42 13 10 13 12 -6 10
-18 -1 -21 -7 -20 -42z"/>
<path d="M15964 4656 c-3 -8 -4 -25 -2 -38 2 -17 9 -23 28 -23 22 0 25 4 25
35 0 29 -4 36 -23 38 -13 2 -24 -3 -28 -12z m41 -26 c0 -27 -22 -39 -31 -16
-8 22 3 49 19 43 6 -2 12 -14 12 -27z"/>
<path d="M16124 4630 c1 -31 4 -35 29 -36 25 -1 27 1 26 40 l-2 41 -6 -35 c-8
-48 -38 -54 -44 -8 l-4 33 1 -35z"/>
<path d="M16204 4656 c-16 -43 21 -85 49 -57 9 9 5 11 -13 9 -21 -3 -25 1 -25
22 0 18 5 25 18 24 9 -1 17 2 17 7 0 15 -40 10 -46 -5z"/>
<path d="M16324 4656 c-3 -8 -4 -25 -2 -38 2 -17 9 -23 28 -23 22 0 25 4 25
35 0 29 -4 36 -23 38 -13 2 -24 -3 -28 -12z m41 -26 c0 -27 -22 -39 -31 -16
-8 22 3 49 19 43 6 -2 12 -14 12 -27z"/>
<path d="M16122 4418 c-29 -29 -3 -84 35 -76 24 5 30 38 6 37 -10 0 -13 -3 -5
-6 21 -8 13 -25 -10 -21 -17 2 -24 11 -26 31 -4 32 20 46 43 27 13 -11 14 -10
9 4 -7 19 -35 21 -52 4z"/>
<path d="M16380 4416 c-15 -19 -9 -56 12 -69 34 -22 66 41 36 71 -16 16 -33
15 -48 -2z m45 -31 c0 -23 -4 -30 -20 -30 -21 0 -31 25 -21 51 11 28 41 12 41
-21z"/>
<path d="M16493 4385 c0 -27 2 -38 4 -22 2 15 2 37 0 50 -2 12 -4 0 -4 -28z"/>
<path d="M16562 4418 c-29 -29 -3 -84 35 -76 24 5 30 38 6 37 -10 0 -13 -3 -5
-6 21 -8 13 -25 -10 -21 -17 2 -24 11 -26 31 -4 32 20 46 43 27 13 -11 14 -10
9 4 -7 19 -35 21 -52 4z"/>
<path d="M16790 4421 c0 -5 -9 -11 -21 -14 -30 -8 -23 -61 9 -65 20 -3 22 1
22 42 0 25 -2 46 -5 46 -3 0 -5 -4 -5 -9z m0 -46 c0 -16 -6 -25 -15 -25 -9 0
-15 9 -15 25 0 16 6 25 15 25 9 0 15 -9 15 -25z"/>
<path d="M16925 4419 c-4 -6 -4 -13 -1 -16 3 -4 6 -1 6 5 0 7 7 12 15 12 21 0
19 -24 -5 -45 -27 -25 -25 -35 8 -34 24 2 25 2 4 6 l-24 5 22 23 c13 14 20 31
17 39 -7 18 -33 21 -42 5z"/>
<path d="M16206 4401 c-3 -5 3 -7 14 -4 11 3 20 1 20 -5 0 -5 -9 -12 -21 -15
-27 -7 -20 -31 10 -35 20 -3 22 0 19 30 -3 32 -29 51 -42 29z m34 -41 c0 -5
-7 -10 -15 -10 -8 0 -15 5 -15 10 0 6 7 10 15 10 8 0 15 -4 15 -10z"/>
<path d="M16275 4400 c-8 -14 3 -30 21 -30 8 0 14 -5 14 -11 0 -6 -9 -9 -20
-6 -11 3 -20 1 -20 -5 0 -14 43 -5 48 10 2 7 -5 16 -17 19 -12 3 -21 10 -21
15 0 6 9 8 20 5 11 -3 18 -1 14 4 -7 12 -31 11 -39 -1z"/>
<path d="M16463 4375 c0 -22 2 -30 4 -17 2 12 2 30 0 40 -3 9 -5 -1 -4 -23z"/>
<path d="M16641 4373 c2 -35 2 -35 6 -8 3 16 10 33 16 37 8 5 6 8 -5 8 -14 0
-18 -8 -17 -37z"/>
<path d="M16686 4401 c-3 -5 3 -7 14 -4 11 3 20 1 20 -5 0 -5 -9 -12 -21 -15
-27 -7 -20 -31 10 -35 20 -3 22 0 19 30 -3 32 -29 51 -42 29z m34 -41 c0 -5
-7 -10 -15 -10 -8 0 -15 5 -15 10 0 6 7 10 15 10 8 0 15 -4 15 -10z"/>
<path d="M16824 4396 c-10 -26 0 -51 21 -51 16 0 20 7 20 30 0 33 -30 49 -41
21z m36 -21 c0 -16 -6 -25 -15 -25 -9 0 -15 9 -15 25 0 16 6 25 15 25 9 0 15
-9 15 -25z"/>
<path d="M130 4235 c-15 -18 2 -45 30 -45 10 0 23 7 30 15 15 18 -2 45 -30 45
-10 0 -23 -7 -30 -15z m55 -15 c0 -18 -33 -26 -47 -12 -6 6 -7 15 -3 22 10 16
50 8 50 -10z"/>
<path d="M16122 4188 c-29 -29 -3 -84 35 -76 24 5 30 38 6 37 -10 0 -13 -3 -5
-6 21 -8 13 -25 -10 -21 -17 2 -24 11 -26 31 -4 32 20 46 43 27 13 -11 14 -10
9 4 -7 19 -35 21 -52 4z"/>
<path d="M16380 4186 c-15 -19 -9 -56 12 -69 34 -22 66 41 36 71 -16 16 -33
15 -48 -2z m45 -31 c0 -23 -4 -30 -20 -30 -21 0 -31 25 -21 51 11 28 41 12 41
-21z"/>
<path d="M16493 4155 c0 -27 2 -38 4 -22 2 15 2 37 0 50 -2 12 -4 0 -4 -28z"/>
<path d="M16562 4188 c-29 -29 -3 -84 35 -76 24 5 30 38 6 37 -10 0 -13 -3 -5
-6 21 -8 13 -25 -10 -21 -17 2 -24 11 -26 31 -4 32 20 46 43 27 13 -11 14 -10
9 4 -7 19 -35 21 -52 4z"/>
<path d="M16790 4191 c0 -5 -9 -11 -21 -14 -30 -8 -23 -61 9 -65 20 -3 22 1
22 42 0 25 -2 46 -5 46 -3 0 -5 -4 -5 -9z m0 -46 c0 -16 -6 -25 -15 -25 -9 0
-15 9 -15 25 0 16 6 25 15 25 9 0 15 -9 15 -25z"/>
<path d="M16926 4191 c-3 -5 3 -7 14 -4 22 6 29 -22 8 -30 -10 -4 -10 -6 0 -6
6 -1 12 -8 12 -17 0 -12 -6 -15 -21 -11 -16 4 -19 3 -11 -5 21 -21 41 -1 39
39 -2 37 -27 58 -41 34z"/>
<path d="M16206 4171 c-3 -5 3 -7 14 -4 11 3 20 1 20 -5 0 -5 -9 -12 -21 -15
-27 -7 -20 -31 10 -35 20 -3 22 0 19 30 -3 32 -29 51 -42 29z m34 -41 c0 -5
-7 -10 -15 -10 -8 0 -15 5 -15 10 0 6 7 10 15 10 8 0 15 -4 15 -10z"/>
<path d="M16275 4170 c-8 -14 3 -30 21 -30 8 0 14 -5 14 -11 0 -6 -9 -9 -20
-6 -11 3 -20 1 -20 -5 0 -14 43 -5 48 10 2 7 -5 16 -17 19 -12 3 -21 10 -21
15 0 6 9 8 20 5 11 -3 18 -1 14 4 -7 12 -31 11 -39 -1z"/>
<path d="M16463 4145 c0 -22 2 -30 4 -17 2 12 2 30 0 40 -3 9 -5 -1 -4 -23z"/>
<path d="M16641 4143 c2 -35 2 -35 6 -8 3 16 10 33 16 37 8 5 6 8 -5 8 -14 0
-18 -8 -17 -37z"/>
<path d="M16686 4171 c-3 -5 3 -7 14 -4 11 3 20 1 20 -5 0 -5 -9 -12 -21 -15
-27 -7 -20 -31 10 -35 20 -3 22 0 19 30 -3 32 -29 51 -42 29z m34 -41 c0 -5
-7 -10 -15 -10 -8 0 -15 5 -15 10 0 6 7 10 15 10 8 0 15 -4 15 -10z"/>
<path d="M16824 4166 c-10 -26 0 -51 21 -51 16 0 20 7 20 30 0 33 -30 49 -41
21z m36 -21 c0 -16 -6 -25 -15 -25 -9 0 -15 9 -15 25 0 16 6 25 15 25 9 0 15
-9 15 -25z"/>
<path d="M138 4163 c12 -2 32 -2 45 0 12 2 2 4 -23 4 -25 0 -35 -2 -22 -4z"/>
<path d="M124 4125 c-8 -19 13 -45 36 -45 10 0 23 7 30 15 14 16 7 45 -11 45
-8 0 -8 -4 1 -15 16 -20 1 -39 -26 -33 -13 3 -18 11 -17 26 3 25 -5 29 -13 7z"/>
<path d="M279 4063 c-8 -10 -9 -14 -2 -10 8 5 13 -5 16 -30 3 -35 4 -34 5 10
2 52 1 55 -19 30z"/>
<path d="M334 4066 c-10 -25 0 -71 16 -72 9 0 10 1 3 3 -20 7 -16 71 5 76 16
4 16 5 -1 6 -10 0 -20 -5 -23 -13z"/>
<path d="M404 4066 c-10 -25 0 -71 16 -72 9 0 10 1 3 3 -20 7 -16 71 5 76 16
4 16 5 -1 6 -10 0 -20 -5 -23 -13z"/>
<path d="M474 4066 c-10 -25 0 -71 16 -72 9 0 10 1 3 3 -20 7 -16 71 5 76 16
4 16 5 -1 6 -10 0 -20 -5 -23 -13z"/>
<path d="M130 4050 c-21 -13 0 -45 30 -45 30 0 50 29 32 47 -10 10 -12 8 -10
-11 2 -13 -3 -26 -9 -28 -8 -3 -13 5 -13 21 0 28 -6 31 -30 16z m20 -22 c0
-16 -3 -19 -11 -11 -6 6 -8 16 -5 22 11 17 16 13 16 -11z"/>
<path d="M372 4035 c0 -16 2 -22 5 -12 2 9 2 23 0 30 -3 6 -5 -1 -5 -18z"/>
<path d="M442 4035 c0 -16 2 -22 5 -12 2 9 2 23 0 30 -3 6 -5 -1 -5 -18z"/>
<path d="M512 4035 c0 -16 2 -22 5 -12 2 9 2 23 0 30 -3 6 -5 -1 -5 -18z"/>
<path d="M123 3971 c1 -18 7 -21 42 -20 33 2 35 3 10 6 -16 2 -35 11 -42 20
-10 13 -12 13 -10 -6z"/>
<path d="M16122 3958 c-29 -29 -3 -84 35 -76 24 5 30 38 6 37 -10 0 -13 -3 -5
-6 21 -8 13 -25 -10 -21 -17 2 -24 11 -26 31 -4 32 20 46 43 27 13 -11 14 -10
9 4 -7 19 -35 21 -52 4z"/>
<path d="M16202 3923 c1 -45 2 -46 5 -9 4 35 5 37 19 20 14 -18 14 -18 4 3
-19 41 -30 36 -28 -14z"/>
<path d="M16261 3937 c-1 -28 -4 -36 -13 -31 -8 5 -7 0 2 -11 14 -17 15 -17
18 8 2 15 1 37 -1 50 -3 13 -5 7 -6 -16z"/>
<path d="M16302 3958 c-16 -16 -15 -53 3 -68 18 -15 47 -10 53 10 5 13 3 13
-11 1 -23 -19 -47 -7 -47 24 0 31 24 43 47 24 14 -12 16 -12 11 1 -6 19 -40
24 -56 8z"/>
<path d="M97 3924 c-4 -4 -7 -22 -7 -41 l0 -33 58 1 c31 1 45 4 30 6 -22 3
-27 10 -30 36 -2 23 -9 33 -23 35 -12 2 -24 0 -28 -4z m43 -34 c0 -23 -4 -30
-20 -30 -14 0 -20 7 -20 23 0 27 7 37 27 37 8 0 13 -12 13 -30z"/>
<path d="M16112 3693 c1 -45 2 -46 5 -9 4 35 5 37 19 20 14 -18 14 -18 4 3
-19 41 -30 36 -28 -14z"/>
<path d="M16171 3707 c-1 -28 -4 -36 -13 -31 -8 5 -7 0 2 -11 14 -17 15 -17
18 8 2 15 1 37 -1 50 -3 13 -5 7 -6 -16z"/>
<path d="M16268 3728 c-2 -7 -1 -29 3 -48 l6 -35 2 33 c1 40 21 43 21 2 0 -16
3 -30 8 -30 6 0 7 38 3 83 -1 12 -39 8 -43 -5z"/>
<path d="M17080 3731 c0 -5 -9 -11 -21 -14 -30 -8 -23 -61 9 -65 20 -3 22 1
22 42 0 25 -2 46 -5 46 -3 0 -5 -4 -5 -9z m0 -46 c0 -16 -6 -25 -15 -25 -9 0
-15 9 -15 25 0 16 6 25 15 25 9 0 15 -9 15 -25z"/>
<path d="M17530 3731 c0 -5 -9 -11 -21 -14 -30 -8 -23 -61 9 -65 20 -3 22 1
22 42 0 25 -2 46 -5 46 -3 0 -5 -4 -5 -9z m0 -46 c0 -16 -6 -25 -15 -25 -9 0
-15 9 -15 25 0 16 6 25 15 25 9 0 15 -9 15 -25z"/>
<path d="M17664 3726 c-8 -21 2 -46 18 -45 10 0 10 2 1 6 -18 7 -16 43 2 43
11 0 15 -11 15 -36 0 -32 -2 -36 -21 -31 -16 4 -19 3 -11 -5 22 -22 43 0 40
39 -3 40 -32 59 -44 29z"/>
<path d="M17737 3733 c-4 -3 -7 -14 -7 -24 0 -12 6 -16 20 -12 16 4 20 0 20
-17 0 -18 -4 -21 -21 -17 -16 4 -19 3 -11 -5 16 -16 42 -2 42 23 0 12 -8 23
-20 26 -27 7 -25 21 3 26 20 4 20 4 1 6 -11 0 -24 -2 -27 -6z"/>
<path d="M17831 3693 c1 -27 4 -38 6 -25 2 12 10 22 17 22 8 0 21 -10 29 -22
9 -13 16 -18 16 -11 1 6 -4 15 -9 18 -8 5 -7 11 1 21 18 22 3 44 -31 44 -29 0
-30 -1 -29 -47z m59 22 c0 -9 -9 -15 -25 -15 -16 0 -25 6 -25 15 0 9 9 15 25
15 16 0 25 -6 25 -15z"/>
<path d="M16437 3723 c-9 -9 -9 -71 1 -76 4 -3 7 15 7 39 0 24 0 44 -1 44 0 0
-4 -3 -7 -7z"/>
<path d="M16206 3711 c-3 -5 3 -7 14 -4 11 3 20 1 20 -5 0 -5 -9 -12 -21 -15
-27 -7 -20 -31 10 -35 20 -3 22 0 19 30 -3 32 -29 51 -42 29z m34 -41 c0 -5
-7 -10 -15 -10 -8 0 -15 5 -15 10 0 6 7 10 15 10 8 0 15 -4 15 -10z"/>
<path d="M16336 3711 c-3 -5 3 -7 14 -4 11 3 20 1 20 -5 0 -5 -9 -12 -21 -15
-27 -7 -20 -31 10 -35 20 -3 22 0 19 30 -3 32 -29 51 -42 29z m34 -41 c0 -5
-7 -10 -15 -10 -8 0 -15 5 -15 10 0 6 7 10 15 10 8 0 15 -4 15 -10z"/>
<path d="M16470 3671 c0 -25 4 -41 8 -35 4 6 15 13 25 17 28 10 19 62 -10 63
-21 1 -23 -3 -23 -45z m40 14 c0 -26 -14 -33 -25 -15 -9 14 1 40 15 40 5 0 10
-11 10 -25z"/>
<path d="M16541 3683 c2 -35 2 -35 6 -8 3 16 10 33 16 37 8 5 6 8 -5 8 -14 0
-18 -8 -17 -37z"/>
<path d="M16587 3714 c-4 -4 -7 -18 -7 -31 0 -26 26 -41 42 -25 8 8 5 9 -11 5
-12 -3 -21 -1 -21 6 0 6 9 11 21 11 14 0 19 5 17 17 -3 19 -29 29 -41 17z m33
-14 c0 -5 -7 -10 -15 -10 -8 0 -15 5 -15 10 0 6 7 10 15 10 8 0 15 -4 15 -10z"/>
<path d="M16651 3681 c1 -35 2 -35 8 -7 9 43 31 45 32 4 l1 -33 7 29 c9 42 29
44 34 4 l5 -33 -2 35 c-1 34 -2 35 -43 36 -43 0 -43 0 -42 -35z"/>
<path d="M16763 3685 c0 -22 2 -30 4 -17 2 12 2 30 0 40 -3 9 -5 -1 -4 -23z"/>
<path d="M16793 3688 c1 -26 7 -34 25 -36 20 -3 22 1 20 35 -1 37 -1 37 -5 6
-5 -42 -30 -43 -37 -3 -6 30 -6 30 -3 -2z"/>
<path d="M16861 3681 c1 -35 2 -35 8 -7 9 43 31 45 32 4 l1 -33 7 29 c9 42 29
44 34 4 l5 -33 -2 35 c-1 34 -2 35 -43 36 -43 0 -43 0 -42 -35z"/>
<path d="M17117 3714 c-4 -4 -7 -18 -7 -31 0 -26 26 -41 42 -25 8 8 5 9 -11 5
-12 -3 -21 -1 -21 6 0 6 9 11 21 11 14 0 19 5 17 17 -3 19 -29 29 -41 17z m33
-14 c0 -5 -7 -10 -15 -10 -8 0 -15 5 -15 10 0 6 7 10 15 10 8 0 15 -4 15 -10z"/>
<path d="M17211 3681 c1 -35 2 -35 8 -7 9 43 31 45 32 4 l1 -33 7 29 c9 42 29
44 34 4 l5 -33 -2 35 c-1 34 -2 35 -43 36 -43 0 -43 0 -42 -35z"/>
<path d="M17326 3711 c-3 -5 3 -7 14 -4 11 3 20 1 20 -5 0 -5 -9 -12 -21 -15
-27 -7 -20 -31 10 -35 20 -3 22 0 19 30 -3 32 -29 51 -42 29z m34 -41 c0 -5
-7 -10 -15 -10 -8 0 -15 5 -15 10 0 6 7 10 15 10 8 0 15 -4 15 -10z"/>
<path d="M17395 3710 c-8 -14 3 -30 21 -30 8 0 14 -5 14 -11 0 -6 -9 -9 -20
-6 -11 3 -20 1 -20 -5 0 -14 43 -5 48 10 2 7 -5 16 -17 19 -12 3 -21 10 -21
15 0 6 9 8 20 5 11 -3 18 -1 14 4 -7 12 -31 11 -39 -1z"/>
<path d="M17567 3714 c-4 -4 -7 -18 -7 -31 0 -26 26 -41 42 -25 8 8 5 9 -11 5
-12 -3 -21 -1 -21 6 0 6 9 11 21 11 14 0 19 5 17 17 -3 19 -29 29 -41 17z m33
-14 c0 -5 -7 -10 -15 -10 -8 0 -15 5 -15 10 0 6 7 10 15 10 8 0 15 -4 15 -10z"/>
<path d="M17924 3706 c-10 -26 0 -51 21 -51 16 0 20 7 20 30 0 33 -30 49 -41
21z m36 -21 c0 -16 -6 -25 -15 -25 -9 0 -15 9 -15 25 0 16 6 25 15 25 9 0 15
-9 15 -25z"/>
<path d="M17992 3683 c1 -37 1 -37 5 -5 3 18 10 32 18 32 8 0 16 -14 18 -32
l5 -33 -2 35 c-1 28 -5 36 -23 38 -21 3 -23 -1 -21 -35z"/>
<path d="M16112 3463 c1 -45 2 -46 5 -9 4 35 5 37 19 20 14 -18 14 -18 4 3
-19 41 -30 36 -28 -14z"/>
<path d="M16171 3477 c-1 -28 -4 -36 -13 -31 -8 5 -7 0 2 -11 14 -17 15 -17
18 8 2 15 1 37 -1 50 -3 13 -5 7 -6 -16z"/>
<path d="M16268 3498 c-2 -7 -1 -29 3 -48 l6 -35 2 33 c1 40 21 43 21 2 0 -16
3 -30 8 -30 6 0 7 38 3 83 -1 12 -39 8 -43 -5z"/>
<path d="M16998 3500 c-5 -17 3 -80 11 -80 7 0 6 79 -2 86 -3 3 -7 0 -9 -6z"/>
<path d="M17174 3496 c-8 -21 2 -46 18 -45 10 0 10 2 1 6 -18 7 -16 43 2 43
11 0 15 -11 15 -36 0 -32 -2 -36 -21 -31 -16 4 -19 3 -11 -5 22 -22 43 0 40
39 -3 40 -32 59 -44 29z"/>
<path d="M17245 3499 c-4 -6 -4 -13 -1 -16 3 -4 6 -1 6 5 0 7 7 12 15 12 21 0
19 -24 -5 -45 -27 -25 -25 -35 8 -34 24 2 25 2 4 6 l-24 5 22 23 c13 14 20 31
17 39 -7 18 -33 21 -42 5z"/>
<path d="M17424 3496 c-8 -21 2 -46 18 -45 10 0 10 2 1 6 -18 7 -16 43 2 43
11 0 15 -11 15 -36 0 -32 -2 -36 -21 -31 -16 4 -19 3 -11 -5 22 -22 43 0 40
39 -3 40 -32 59 -44 29z"/>
<path d="M17497 3503 c-4 -3 -7 -14 -7 -24 0 -12 6 -16 20 -12 16 4 20 0 20
-17 0 -18 -4 -21 -21 -17 -16 4 -19 3 -11 -5 16 -16 42 -2 42 23 0 12 -8 23
-20 26 -27 7 -25 21 3 26 20 4 20 4 1 6 -11 0 -24 -2 -27 -6z"/>
<path d="M17591 3463 c1 -27 4 -38 6 -25 2 12 10 22 17 22 8 0 21 -10 29 -22
9 -13 16 -18 16 -11 1 6 -4 15 -9 18 -8 5 -7 11 1 21 18 22 3 44 -31 44 -29 0
-30 -1 -29 -47z m59 22 c0 -9 -9 -15 -25 -15 -16 0 -25 6 -25 15 0 9 9 15 25
15 16 0 25 -6 25 -15z"/>
<path d="M16437 3493 c-9 -9 -9 -71 1 -76 4 -3 7 15 7 39 0 24 0 44 -1 44 0 0
-4 -3 -7 -7z"/>
<path d="M16206 3481 c-3 -5 3 -7 14 -4 11 3 20 1 20 -5 0 -5 -9 -12 -21 -15
-27 -7 -20 -31 10 -35 20 -3 22 0 19 30 -3 32 -29 51 -42 29z m34 -41 c0 -5
-7 -10 -15 -10 -8 0 -15 5 -15 10 0 6 7 10 15 10 8 0 15 -4 15 -10z"/>
<path d="M16336 3481 c-3 -5 3 -7 14 -4 11 3 20 1 20 -5 0 -5 -9 -12 -21 -15
-27 -7 -20 -31 10 -35 20 -3 22 0 19 30 -3 32 -29 51 -42 29z m34 -41 c0 -5
-7 -10 -15 -10 -8 0 -15 5 -15 10 0 6 7 10 15 10 8 0 15 -4 15 -10z"/>
<path d="M16475 3480 c-8 -14 3 -30 21 -30 8 0 14 -5 14 -11 0 -6 -9 -9 -20
-6 -11 3 -20 1 -20 -5 0 -14 43 -5 48 10 2 7 -5 16 -17 19 -12 3 -21 10 -21
15 0 6 9 8 20 5 11 -3 18 -1 14 4 -7 12 -31 11 -39 -1z"/>
<path d="M16543 3458 c1 -26 7 -34 25 -36 20 -3 22 1 20 35 -1 37 -1 37 -5 6
-5 -42 -30 -43 -37 -3 -6 30 -6 30 -3 -2z"/>
<path d="M16610 3441 c0 -25 4 -41 8 -35 4 6 15 13 25 17 28 10 19 62 -10 63
-21 1 -23 -3 -23 -45z m40 14 c0 -26 -14 -33 -25 -15 -9 14 1 40 15 40 5 0 10
-11 10 -25z"/>
<path d="M16687 3484 c-4 -4 -7 -18 -7 -31 0 -26 26 -41 42 -25 8 8 5 9 -11 5
-12 -3 -21 -1 -21 6 0 6 9 11 21 11 14 0 19 5 17 17 -3 19 -29 29 -41 17z m33
-14 c0 -5 -7 -10 -15 -10 -8 0 -15 5 -15 10 0 6 7 10 15 10 8 0 15 -4 15 -10z"/>
<path d="M16751 3453 c2 -35 2 -35 6 -8 3 16 10 33 16 37 8 5 6 8 -5 8 -14 0
-18 -8 -17 -37z"/>
<path d="M16867 3484 c-4 -4 -7 -18 -7 -31 0 -26 26 -41 42 -25 8 8 5 9 -11 5
-12 -3 -21 -1 -21 6 0 6 9 11 21 11 14 0 19 5 17 17 -3 19 -29 29 -41 17z m33
-14 c0 -5 -7 -10 -15 -10 -8 0 -15 5 -15 10 0 6 7 10 15 10 8 0 15 -4 15 -10z"/>
<path d="M16932 3453 c1 -37 1 -37 5 -5 3 18 10 32 18 32 8 0 16 -14 18 -32
l5 -33 -2 35 c-1 28 -5 36 -23 38 -21 3 -23 -1 -21 -35z"/>
<path d="M17031 3453 c2 -35 2 -35 6 -8 3 16 10 33 16 37 8 5 6 8 -5 8 -14 0
-18 -8 -17 -37z"/>
<path d="M17077 3484 c-4 -4 -7 -18 -7 -31 0 -26 26 -41 42 -25 8 8 5 9 -11 5
-12 -3 -21 -1 -21 6 0 6 9 11 21 11 14 0 19 5 17 17 -3 19 -29 29 -41 17z m33
-14 c0 -5 -7 -10 -15 -10 -8 0 -15 5 -15 10 0 6 7 10 15 10 8 0 15 -4 15 -10z"/>
<path d="M17684 3476 c-10 -26 0 -51 21 -51 16 0 20 7 20 30 0 33 -30 49 -41
21z m36 -21 c0 -16 -6 -25 -15 -25 -9 0 -15 9 -15 25 0 16 6 25 15 25 9 0 15
-9 15 -25z"/>
<path d="M17752 3453 c1 -37 1 -37 5 -5 3 18 10 32 18 32 8 0 16 -14 18 -32
l5 -33 -2 35 c-1 28 -5 36 -23 38 -21 3 -23 -1 -21 -35z"/>
<path d="M17344 3438 c1 -41 10 -38 20 7 4 19 3 25 -2 16 -8 -11 -10 -11 -14
0 -3 8 -4 -3 -4 -23z"/>
<path d="M348 2433 c6 -2 18 -2 25 0 6 3 1 5 -13 5 -14 0 -19 -2 -12 -5z"/>
<path d="M404 2426 c-10 -25 0 -71 16 -72 9 0 10 1 3 3 -20 7 -16 71 5 76 16
4 16 5 -1 6 -10 0 -20 -5 -23 -13z"/>
<path d="M474 2426 c-10 -25 0 -71 16 -72 9 0 10 1 3 3 -20 7 -16 71 5 76 16
4 16 5 -1 6 -10 0 -20 -5 -23 -13z"/>
<path d="M330 2407 c0 -7 11 -12 24 -12 28 0 26 10 -4 18 -11 3 -20 0 -20 -6z"/>
<path d="M442 2395 c0 -16 2 -22 5 -12 2 9 2 23 0 30 -3 6 -5 -1 -5 -18z"/>
<path d="M512 2395 c0 -16 2 -22 5 -12 2 9 2 23 0 30 -3 6 -5 -1 -5 -18z"/>
<path d="M337 2358 c2 -5 10 -8 18 -8 8 0 16 3 18 8 3 4 -5 7 -18 7 -13 0 -21
-3 -18 -7z"/>
<path d="M474 796 c-10 -25 0 -71 16 -72 9 0 10 1 3 3 -20 7 -16 71 5 76 16 4
16 5 -1 6 -10 0 -20 -5 -23 -13z"/>
<path d="M512 765 c0 -16 2 -22 5 -12 2 9 2 23 0 30 -3 6 -5 -1 -5 -18z"/>
<path d="M1373 315 c0 -27 2 -38 4 -22 2 15 2 37 0 50 -2 12 -4 0 -4 -28z"/>
<path d="M1412 348 c-7 -7 -12 -17 -12 -22 0 -6 5 -3 11 7 5 9 16 17 24 17 8
0 19 -8 24 -17 6 -10 11 -13 11 -7 0 13 -21 34 -35 34 -6 0 -16 -5 -23 -12z"/>
<path d="M1490 315 c0 -27 2 -46 4 -44 8 8 10 78 3 85 -4 4 -7 -14 -7 -41z"/>
<path d="M1551 327 c-1 -28 -4 -36 -13 -31 -8 5 -7 0 2 -11 14 -17 15 -17 18
8 2 15 1 37 -1 50 -3 13 -5 7 -6 -16z"/>
<path d="M2510 316 c0 -42 2 -46 24 -46 14 0 27 4 30 9 3 4 -6 6 -19 3 -19 -3
-25 0 -25 13 0 13 6 16 26 12 22 -4 25 -1 22 22 -2 20 -9 27 -30 29 -27 3 -28
2 -28 -42z m50 19 c0 -8 -9 -15 -20 -15 -11 0 -20 7 -20 15 0 8 9 15 20 15 11
0 20 -7 20 -15z"/>
<path d="M2592 318 c-2 -46 -1 -48 26 -47 22 1 23 2 5 6 -18 3 -23 13 -26 46
l-4 42 -1 -47z"/>
<path d="M2730 315 c0 -27 2 -46 4 -44 8 8 10 78 3 85 -4 4 -7 -14 -7 -41z"/>
<path d="M2791 327 c-1 -28 -4 -36 -13 -31 -8 5 -7 0 2 -11 14 -17 15 -17 18
8 2 15 1 37 -1 50 -3 13 -5 7 -6 -16z"/>
<path d="M2832 348 c-6 -6 -12 -17 -12 -22 0 -6 5 -3 11 7 11 19 44 23 52 7 3
-6 4 -5 3 2 -3 18 -38 22 -54 6z"/>
<path d="M3770 315 c0 -40 2 -45 23 -45 29 0 47 18 47 45 0 27 -18 45 -47 45
-21 0 -23 -5 -23 -45z m55 0 c0 -23 -5 -31 -22 -33 -20 -3 -23 1 -23 33 0 32
3 36 23 33 17 -2 22 -10 22 -33z"/>
<path d="M3931 313 c1 -26 4 -38 6 -26 3 13 13 23 26 25 34 5 29 42 -5 46 -27
3 -28 2 -27 -45z m49 22 c0 -8 -9 -15 -20 -15 -11 0 -20 7 -20 15 0 8 9 15 20
15 11 0 20 -7 20 -15z"/>
<path d="M4017 354 c-15 -15 -6 -32 23 -43 36 -12 41 -5 5 9 -14 5 -25 14 -25
20 0 13 37 13 43 0 3 -6 4 -5 3 2 -3 14 -38 23 -49 12z"/>
<path d="M4197 354 c-15 -15 -6 -32 23 -43 36 -12 41 -5 5 9 -14 5 -25 14 -25
20 0 13 37 13 43 0 3 -6 4 -5 3 2 -3 14 -38 23 -49 12z"/>
<path d="M5272 348 c-29 -29 -3 -84 35 -76 24 5 30 38 6 37 -10 0 -13 -3 -5
-6 21 -8 13 -25 -10 -21 -17 2 -24 11 -26 31 -4 32 20 46 46 26 15 -13 16 -12
3 4 -16 20 -32 22 -49 5z"/>
<path d="M5353 325 c0 -22 2 -30 4 -17 2 12 2 30 0 40 -3 9 -5 -1 -4 -23z"/>
<path d="M5412 327 c-2 -29 -7 -40 -24 -47 -16 -6 -18 -9 -7 -9 26 -1 41 24
36 61 l-4 33 -1 -38z"/>
<path d="M5442 318 c-2 -46 -1 -48 26 -47 22 1 23 2 5 6 -18 3 -23 13 -26 46
l-4 42 -1 -47z"/>
<path d="M5511 313 c1 -27 4 -38 6 -26 2 12 12 24 21 26 15 4 15 5 0 6 -26 2
-22 29 5 34 19 4 18 4 -5 6 -27 1 -28 -1 -27 -46z"/>
<path d="M6072 348 c-7 -7 -12 -17 -12 -22 0 -6 5 -3 11 7 5 9 16 17 24 17 8
0 19 -8 24 -17 6 -10 11 -13 11 -7 0 13 -21 34 -35 34 -6 0 -16 -5 -23 -12z"/>
<path d="M6153 315 c0 -27 2 -38 4 -22 2 15 2 37 0 50 -2 12 -4 0 -4 -28z"/>
<path d="M6182 318 c-2 -46 -1 -48 26 -47 22 1 23 2 5 6 -18 3 -23 13 -26 46
l-4 42 -1 -47z"/>
<path d="M6292 348 c-6 -6 -12 -17 -12 -22 0 -6 5 -3 11 7 11 19 44 23 52 7 3
-6 4 -5 3 2 -3 18 -38 22 -54 6z"/>
<path d="M6382 348 c-7 -7 -12 -17 -12 -22 0 -6 5 -3 11 7 5 9 16 17 24 17 8
0 19 -8 24 -17 6 -10 11 -13 11 -7 0 13 -21 34 -35 34 -6 0 -16 -5 -23 -12z"/>
<path d="M6463 315 c0 -27 2 -38 4 -22 2 15 2 37 0 50 -2 12 -4 0 -4 -28z"/>
<path d="M6518 353 c-2 -5 -1 -26 3 -48 l6 -40 2 48 c1 44 -3 57 -11 40z"/>
<path d="M6550 316 c0 -42 2 -46 24 -46 14 0 27 4 30 9 3 4 -6 6 -19 3 -19 -3
-25 0 -25 13 0 13 6 16 26 12 22 -4 25 -1 22 22 -2 20 -9 27 -30 29 -27 3 -28
2 -28 -42z m50 19 c0 -8 -9 -15 -20 -15 -11 0 -20 7 -20 15 0 8 9 15 20 15 11
0 20 -7 20 -15z"/>
<path d="M6633 325 c0 -22 2 -30 4 -17 2 12 2 30 0 40 -3 9 -5 -1 -4 -23z"/>
<path d="M6692 327 c-2 -29 -7 -40 -24 -47 -16 -6 -18 -9 -7 -9 26 -1 41 24
36 61 l-4 33 -1 -38z"/>
<path d="M6727 354 c-15 -15 -6 -32 23 -43 36 -12 41 -5 5 9 -14 5 -25 14 -25
20 0 13 37 13 43 0 3 -6 4 -5 3 2 -3 14 -38 23 -49 12z"/>
<path d="M6802 353 c12 -3 18 -17 21 -46 l4 -42 1 42 c2 30 7 43 20 46 9 3 -1
5 -23 5 -22 0 -32 -2 -23 -5z"/>
<path d="M6873 315 c0 -27 2 -38 4 -22 2 15 2 37 0 50 -2 12 -4 0 -4 -28z"/>
<path d="M6900 316 c0 -42 2 -46 24 -46 14 0 27 4 30 9 3 4 -6 6 -19 3 -19 -3
-25 0 -25 13 0 13 6 16 26 12 22 -4 25 -1 22 22 -2 20 -9 27 -30 29 -27 3 -28
2 -28 -42z m50 19 c0 -8 -9 -15 -20 -15 -11 0 -20 7 -20 15 0 8 9 15 20 15 11
0 20 -7 20 -15z"/>
<path d="M6982 318 c-2 -46 -1 -48 26 -47 22 1 23 2 5 6 -18 3 -23 13 -26 46
l-4 42 -1 -47z"/>
<path d="M7050 315 c0 -44 0 -45 33 -44 30 2 30 2 5 6 -16 2 -28 10 -28 18 0
8 12 16 28 18 l27 4 -27 2 c-17 0 -28 7 -28 15 0 8 12 17 28 19 25 4 25 4 -5
6 -33 1 -33 0 -33 -44z"/>
<path d="M7137 354 c-15 -15 -6 -32 23 -43 36 -12 41 -5 5 9 -14 5 -25 14 -25
20 0 13 37 13 43 0 3 -6 4 -5 3 2 -3 14 -38 23 -49 12z"/>
<path d="M7247 354 c-15 -15 -6 -32 23 -43 36 -12 41 -5 5 9 -14 5 -25 14 -25
20 0 13 37 13 43 0 3 -6 4 -5 3 2 -3 14 -38 23 -49 12z"/>
<path d="M7931 313 c1 -26 4 -38 6 -26 3 13 13 23 26 25 34 5 29 42 -5 46 -27
3 -28 2 -27 -45z m49 22 c0 -8 -9 -15 -20 -15 -11 0 -20 7 -20 15 0 8 9 15 20
15 11 0 20 -7 20 -15z"/>
<path d="M8013 325 c0 -22 2 -30 4 -17 2 12 2 30 0 40 -3 9 -5 -1 -4 -23z"/>
<path d="M8072 327 c-2 -29 -7 -40 -24 -47 -16 -6 -18 -9 -7 -9 26 -1 41 24
36 61 l-4 33 -1 -38z"/>
<path d="M8103 315 c0 -27 2 -38 4 -22 2 15 2 37 0 50 -2 12 -4 0 -4 -28z"/>
<path d="M8158 353 c-2 -5 -1 -26 3 -48 l6 -40 2 48 c1 44 -3 57 -11 40z"/>
<path d="M9171 313 c1 -27 4 -38 6 -25 2 12 10 22 17 22 8 0 21 -10 30 -22 15
-21 16 -21 7 -2 -7 14 -7 24 1 32 18 18 1 42 -32 42 -29 0 -30 -1 -29 -47z
m59 22 c0 -9 -9 -15 -25 -15 -16 0 -25 6 -25 15 0 9 9 15 25 15 16 0 25 -6 25
-15z"/>
<path d="M9260 315 c0 -44 0 -45 33 -44 30 2 30 2 5 6 -16 2 -28 10 -28 18 0
8 12 16 28 18 l27 4 -27 2 c-17 0 -28 7 -28 15 0 8 12 17 28 19 25 4 25 4 -5
6 -33 1 -33 0 -33 -44z"/>
<path d="M9341 313 c1 -27 4 -38 6 -26 2 12 12 24 21 26 15 4 15 5 0 6 -26 2
-22 29 5 34 19 4 18 4 -5 6 -27 1 -28 -1 -27 -46z"/>
<path d="M9413 315 c0 -27 2 -38 4 -22 2 15 2 37 0 50 -2 12 -4 0 -4 -28z"/>
<path d="M9440 315 c0 -27 2 -46 4 -44 8 8 10 78 3 85 -4 4 -7 -14 -7 -41z"/>
<path d="M9501 327 c-1 -28 -4 -36 -13 -31 -8 5 -7 0 2 -11 14 -17 15 -17 18
8 2 15 1 37 -1 50 -3 13 -5 7 -6 -16z"/>
<path d="M9542 348 c-7 -7 -12 -17 -12 -22 0 -6 5 -3 11 7 5 9 16 17 24 17 8
0 19 -8 24 -17 6 -10 11 -13 11 -7 0 13 -21 34 -35 34 -6 0 -16 -5 -23 -12z"/>
<path d="M9621 313 c1 -27 4 -38 6 -25 2 12 10 22 17 22 8 0 21 -10 30 -22 15
-21 16 -21 7 -2 -7 14 -7 24 1 32 18 18 1 42 -32 42 -29 0 -30 -1 -29 -47z
m59 22 c0 -9 -9 -15 -25 -15 -16 0 -25 6 -25 15 0 9 9 15 25 15 16 0 25 -6 25
-15z"/>
<path d="M10297 354 c-15 -15 -6 -32 23 -43 36 -12 41 -5 5 9 -14 5 -25 14
-25 20 0 13 37 13 43 0 3 -6 4 -5 3 2 -3 14 -38 23 -49 12z"/>
<path d="M10373 315 c0 -27 2 -40 4 -27 3 15 11 22 28 22 17 0 25 -7 28 -22 2
-13 4 0 4 27 0 28 -2 40 -4 28 -3 -16 -11 -23 -28 -23 -17 0 -25 7 -28 23 -2
12 -4 0 -4 -28z"/>
<path d="M10460 315 c0 -44 0 -45 33 -44 30 2 30 2 5 6 -16 2 -28 10 -28 18 0
8 12 16 28 18 l27 4 -27 2 c-17 0 -28 7 -28 15 0 8 12 17 28 19 25 4 25 4 -5
6 -33 1 -33 0 -33 -44z"/>
<path d="M10542 318 c-2 -46 -1 -48 26 -47 22 1 23 2 5 6 -18 3 -23 13 -26 46
l-4 42 -1 -47z"/>
<path d="M10612 318 c-2 -46 -1 -48 26 -47 22 1 23 2 5 6 -18 3 -23 13 -26 46
l-4 42 -1 -47z"/>
<path d="M10722 348 c-6 -6 -12 -17 -12 -22 0 -6 5 -3 11 7 11 19 44 23 52 7
3 -6 4 -5 3 2 -3 18 -38 22 -54 6z"/>
<path d="M10931 313 c1 -26 4 -38 6 -26 3 13 13 23 26 25 34 5 29 42 -5 46
-27 3 -28 2 -27 -45z m49 22 c0 -8 -9 -15 -20 -15 -11 0 -20 7 -20 15 0 8 9
15 20 15 11 0 20 -7 20 -15z"/>
<path d="M11047 354 c-15 -15 -6 -32 23 -43 36 -12 41 -5 5 9 -14 5 -25 14
-25 20 0 13 37 13 43 0 3 -6 4 -5 3 2 -3 14 -38 23 -49 12z"/>
<path d="M11417 354 c-15 -15 -6 -32 23 -43 36 -12 41 -5 5 9 -14 5 -25 14
-25 20 0 13 37 13 43 0 3 -6 4 -5 3 2 -3 14 -38 23 -49 12z"/>
<path d="M11493 315 c0 -27 2 -38 4 -22 2 15 2 37 0 50 -2 12 -4 0 -4 -28z"/>
<path d="M11520 315 c0 -27 2 -46 4 -44 8 8 10 78 3 85 -4 4 -7 -14 -7 -41z"/>
<path d="M11581 327 c-1 -28 -4 -36 -13 -31 -8 5 -7 0 2 -11 14 -17 15 -17 18
8 2 15 1 37 -1 50 -3 13 -5 7 -6 -16z"/>
<path d="M11640 315 c0 -44 0 -45 33 -44 30 2 30 2 5 6 -16 2 -28 10 -28 18 0
8 12 16 28 18 l27 4 -27 2 c-17 0 -28 7 -28 15 0 8 12 17 28 19 25 4 25 4 -5
6 -33 1 -33 0 -33 -44z"/>
<path d="M11723 315 c0 -27 2 -38 4 -22 2 15 2 37 0 50 -2 12 -4 0 -4 -28z"/>
<path d="M11778 353 c-2 -5 -1 -26 3 -48 l6 -40 2 48 c1 44 -3 57 -11 40z"/>
<path d="M11811 313 c1 -26 4 -38 6 -26 3 13 13 23 26 25 34 5 29 42 -5 46
-27 3 -28 2 -27 -45z m49 22 c0 -8 -9 -15 -20 -15 -11 0 -20 7 -20 15 0 8 9
15 20 15 11 0 20 -7 20 -15z"/>
<path d="M11891 313 c1 -27 4 -38 6 -25 2 12 10 22 17 22 8 0 21 -10 30 -22
15 -21 16 -21 7 -2 -7 14 -7 24 1 32 18 18 1 42 -32 42 -29 0 -30 -1 -29 -47z
m59 22 c0 -9 -9 -15 -25 -15 -16 0 -25 6 -25 15 0 9 9 15 25 15 16 0 25 -6 25
-15z"/>
<path d="M11980 315 c0 -44 0 -45 33 -44 30 2 30 2 5 6 -16 2 -28 10 -28 18 0
8 12 16 28 18 l27 4 -27 2 c-17 0 -28 7 -28 15 0 8 12 17 28 19 25 4 25 4 -5
6 -33 1 -33 0 -33 -44z"/>
<path d="M12067 354 c-15 -15 -6 -32 23 -43 36 -12 41 -5 5 9 -14 5 -25 14
-25 20 0 13 37 13 43 0 3 -6 4 -5 3 2 -3 14 -38 23 -49 12z"/>
<path d="M12240 316 c0 -42 2 -46 24 -46 14 0 27 4 30 9 3 4 -6 6 -19 3 -19
-3 -25 0 -25 13 0 13 6 16 26 12 22 -4 25 -1 22 22 -2 20 -9 27 -30 29 -27 3
-28 2 -28 -42z m50 19 c0 -8 -9 -15 -20 -15 -11 0 -20 7 -20 15 0 8 9 15 20
15 11 0 20 -7 20 -15z"/>
<path d="M12390 315 c0 -27 2 -46 4 -44 8 8 10 78 3 85 -4 4 -7 -14 -7 -41z"/>
<path d="M12451 327 c-1 -28 -4 -36 -13 -31 -8 5 -7 0 2 -11 14 -17 15 -17 18
8 2 15 1 37 -1 50 -3 13 -5 7 -6 -16z"/>
<path d="M12480 315 c0 -40 2 -45 23 -45 29 0 47 18 47 45 0 27 -18 45 -47 45
-21 0 -23 -5 -23 -45z m55 0 c0 -23 -5 -31 -22 -33 -20 -3 -23 1 -23 33 0 32
3 36 23 33 17 -2 22 -10 22 -33z"/>
<path d="M12570 315 c0 -44 0 -45 33 -44 30 2 30 2 5 6 -16 2 -28 10 -28 18 0
8 12 16 28 18 l27 4 -27 2 c-17 0 -28 7 -28 15 0 8 12 17 28 19 25 4 25 4 -5
6 -33 1 -33 0 -33 -44z"/>
<path d="M12651 313 c1 -27 4 -38 6 -25 2 12 10 22 17 22 8 0 21 -10 30 -22
15 -21 16 -21 7 -2 -7 14 -7 24 1 32 18 18 1 42 -32 42 -29 0 -30 -1 -29 -47z
m59 22 c0 -9 -9 -15 -25 -15 -16 0 -25 6 -25 15 0 9 9 15 25 15 16 0 25 -6 25
-15z"/>
<path d="M13412 348 c-7 -7 -12 -17 -12 -22 0 -6 5 -3 11 7 5 9 16 17 24 17 8
0 19 -8 24 -17 6 -10 11 -13 11 -7 0 13 -21 34 -35 34 -6 0 -16 -5 -23 -12z"/>
<path d="M14741 313 c1 -26 4 -38 6 -26 3 13 13 23 26 25 34 5 29 42 -5 46
-27 3 -28 2 -27 -45z m49 22 c0 -8 -9 -15 -20 -15 -11 0 -20 7 -20 15 0 8 9
15 20 15 11 0 20 -7 20 -15z"/>
<path d="M14821 313 c1 -27 4 -38 6 -26 2 12 12 24 21 26 15 4 15 5 0 6 -26 2
-22 29 5 34 19 4 18 4 -5 6 -27 1 -28 -1 -27 -46z"/>
<path d="M13508 298 c2 -15 5 -28 7 -28 2 0 5 13 7 28 2 17 -1 29 -7 29 -6 0
-9 -12 -7 -29z"/>
<path d="M14688 298 c2 -15 5 -28 7 -28 2 0 5 13 7 28 2 17 -1 29 -7 29 -6 0
-9 -12 -7 -29z"/>
<path d="M1316 312 c-3 -5 1 -9 9 -9 8 0 12 4 9 9 -3 4 -7 8 -9 8 -2 0 -6 -4
-9 -8z"/>
<path d="M1230 301 c0 -4 11 -6 25 -3 14 2 25 6 25 8 0 2 -11 4 -25 4 -14 0
-25 -4 -25 -9z"/>
<path d="M1453 292 c-10 -15 -14 -15 -34 -3 -22 13 -23 13 -10 -2 7 -10 19
-17 26 -17 14 0 41 28 34 35 -3 2 -10 -4 -16 -13z"/>
<path d="M2660 301 c0 -4 11 -6 25 -3 14 2 25 6 25 8 0 2 -11 4 -25 4 -14 0
-25 -4 -25 -9z"/>
<path d="M2820 304 c-1 -30 60 -45 66 -16 1 7 0 8 -3 2 -8 -16 -41 -12 -52 8
-6 9 -11 12 -11 6z"/>
<path d="M2910 301 c0 -4 11 -6 25 -3 14 2 25 6 25 8 0 2 -11 4 -25 4 -14 0
-25 -4 -25 -9z"/>
<path d="M3860 301 c0 -4 11 -6 25 -3 14 2 25 6 25 8 0 2 -11 4 -25 4 -14 0
-25 -4 -25 -9z"/>
<path d="M4090 301 c0 -4 11 -6 25 -3 14 2 25 6 25 8 0 2 -11 4 -25 4 -14 0
-25 -4 -25 -9z"/>
<path d="M4300 301 c0 -4 11 -6 25 -3 14 2 25 6 25 8 0 2 -11 4 -25 4 -14 0
-25 -4 -25 -9z"/>
<path d="M6113 292 c-10 -15 -14 -15 -34 -3 -22 13 -23 13 -10 -2 7 -10 19
-17 26 -17 14 0 41 28 34 35 -3 2 -10 -4 -16 -13z"/>
<path d="M6280 304 c-1 -30 60 -45 66 -16 1 7 0 8 -3 2 -8 -16 -41 -12 -52 8
-6 9 -11 12 -11 6z"/>
<path d="M6423 292 c-10 -15 -14 -15 -34 -3 -22 13 -23 13 -10 -2 7 -10 19
-17 26 -17 14 0 41 28 34 35 -3 2 -10 -4 -16 -13z"/>
<path d="M7350 301 c0 -4 11 -6 25 -3 14 2 25 6 25 8 0 2 -11 4 -25 4 -14 0
-25 -4 -25 -9z"/>
<path d="M8190 301 c0 -4 11 -6 25 -3 14 2 25 6 25 8 0 2 -11 4 -25 4 -14 0
-25 -4 -25 -9z"/>
<path d="M9583 292 c-10 -15 -14 -15 -34 -3 -22 13 -23 13 -10 -2 7 -10 19
-17 26 -17 14 0 41 28 34 35 -3 2 -10 -4 -16 -13z"/>
<path d="M10710 304 c-1 -30 60 -45 66 -16 1 7 0 8 -3 2 -8 -16 -41 -12 -52 8
-6 9 -11 12 -11 6z"/>
<path d="M10830 301 c0 -4 11 -6 25 -3 14 2 25 6 25 8 0 2 -11 4 -25 4 -14 0
-25 -4 -25 -9z"/>
<path d="M11150 301 c0 -4 11 -6 25 -3 14 2 25 6 25 8 0 2 -11 4 -25 4 -14 0
-25 -4 -25 -9z"/>
<path d="M12140 301 c0 -4 11 -6 25 -3 14 2 25 6 25 8 0 2 -11 4 -25 4 -14 0
-25 -4 -25 -9z"/>
<path d="M12320 301 c0 -4 11 -6 25 -3 14 2 25 6 25 8 0 2 -11 4 -25 4 -14 0
-25 -4 -25 -9z"/>
<path d="M12740 301 c0 -4 11 -6 25 -3 14 2 25 6 25 8 0 2 -11 4 -25 4 -14 0
-25 -4 -25 -9z"/>
<path d="M13453 292 c-10 -15 -14 -15 -34 -3 -22 13 -23 13 -10 -2 7 -10 19
-17 26 -17 14 0 41 28 34 35 -3 2 -10 -4 -16 -13z"/>
<path d="M1290 280 c-9 -6 -10 -10 -3 -10 6 0 15 5 18 10 8 12 4 12 -15 0z"/>
<path d="M4017 278 c2 -5 13 -8 23 -8 10 0 21 3 23 8 3 4 -8 7 -23 7 -15 0
-26 -3 -23 -7z"/>
<path d="M4197 278 c2 -5 13 -8 23 -8 10 0 21 3 23 8 3 4 -8 7 -23 7 -15 0
-26 -3 -23 -7z"/>
<path d="M6727 278 c2 -5 13 -8 23 -8 10 0 21 3 23 8 3 4 -8 7 -23 7 -15 0
-26 -3 -23 -7z"/>
<path d="M7137 278 c2 -5 13 -8 23 -8 10 0 21 3 23 8 3 4 -8 7 -23 7 -15 0
-26 -3 -23 -7z"/>
<path d="M7247 278 c2 -5 13 -8 23 -8 10 0 21 3 23 8 3 4 -8 7 -23 7 -15 0
-26 -3 -23 -7z"/>
<path d="M10297 278 c2 -5 13 -8 23 -8 10 0 21 3 23 8 3 4 -8 7 -23 7 -15 0
-26 -3 -23 -7z"/>
<path d="M11047 278 c2 -5 13 -8 23 -8 10 0 21 3 23 8 3 4 -8 7 -23 7 -15 0
-26 -3 -23 -7z"/>
<path d="M11417 278 c2 -5 13 -8 23 -8 10 0 21 3 23 8 3 4 -8 7 -23 7 -15 0
-26 -3 -23 -7z"/>
<path d="M12067 278 c2 -5 13 -8 23 -8 10 0 21 3 23 8 3 4 -8 7 -23 7 -15 0
-26 -3 -23 -7z"/>
<path d="M7500 155 l0 -55 43 2 42 1 -37 4 c-29 3 -38 9 -38 23 0 14 9 20 33
23 l32 4 -32 1 c-25 2 -33 7 -33 21 0 15 8 21 38 24 l37 4 -42 1 -43 2 0 -55z"/>
<path d="M8140 156 c0 -55 1 -56 29 -56 40 0 53 19 43 66 -7 35 -11 39 -40 42
l-32 3 0 -55z m60 24 c0 -15 -7 -20 -25 -20 -18 0 -25 5 -25 20 0 15 7 20 25
20 18 0 25 -5 25 -20z m5 -50 c0 -9 -11 -16 -27 -18 -23 -3 -28 1 -28 18 0 17
5 21 28 18 16 -2 27 -9 27 -18z"/>
<path d="M8450 192 c0 -13 -7 -18 -22 -18 -20 1 -23 -4 -23 -34 0 -31 3 -35
28 -36 26 -1 27 1 27 52 0 30 -2 54 -5 54 -3 0 -5 -8 -5 -18z m-5 -52 c0 -36
-29 -33 -33 3 -3 23 0 28 15 25 12 -2 18 -12 18 -28z"/>
<path d="M7601 136 l2 -41 6 35 c4 22 12 36 24 38 14 3 17 -4 18 -35 l2 -38 6
35 c9 50 38 53 44 6 l4 -36 -1 37 -1 38 -52 1 -53 1 1 -41z"/>
<path d="M7731 121 c1 -32 4 -48 7 -36 4 11 16 20 27 20 16 0 20 7 20 35 0 31
-3 35 -27 36 -27 1 -28 0 -27 -55z m44 19 c0 -27 -22 -39 -31 -16 -8 22 3 49
19 43 6 -2 12 -14 12 -27z"/>
<path d="M7811 135 c2 -33 3 -35 6 -10 2 17 11 35 20 42 13 10 13 12 -6 10
-18 -1 -21 -7 -20 -42z"/>
<path d="M7864 166 c-16 -41 20 -86 47 -59 6 6 1 9 -12 9 -12 -1 -24 5 -26 12
-3 7 5 12 22 12 20 0 26 4 23 18 -4 22 -46 29 -54 8z m46 -6 c0 -5 -9 -10 -21
-10 -11 0 -17 5 -14 10 3 6 13 10 21 10 8 0 14 -4 14 -10z"/>
<path d="M7947 173 c-14 -14 -6 -31 18 -37 33 -8 33 -30 -1 -23 -16 3 -22 1
-16 -5 15 -15 46 -5 50 14 2 12 -5 19 -22 24 -33 8 -34 28 -1 22 13 -3 22 -1
19 3 -6 11 -38 12 -47 2z"/>
<path d="M8026 172 c-3 -5 6 -7 19 -4 33 6 32 -14 0 -22 -16 -4 -25 -13 -25
-26 0 -16 6 -20 30 -18 29 2 31 5 28 38 -2 27 -8 36 -25 38 -11 2 -24 -1 -27
-6z m44 -42 c0 -12 -28 -25 -36 -17 -9 9 6 27 22 27 8 0 14 -5 14 -10z"/>
<path d="M8246 172 c-3 -5 6 -7 19 -4 33 6 32 -14 0 -22 -16 -4 -25 -13 -25
-26 0 -16 6 -20 30 -18 29 2 31 5 28 38 -2 27 -8 36 -25 38 -11 2 -24 -1 -27
-6z m44 -42 c0 -12 -28 -25 -36 -17 -9 9 6 27 22 27 8 0 14 -5 14 -10z"/>
<path d="M8321 136 l2 -41 6 35 c8 48 38 54 44 8 l4 -33 -1 35 c-1 31 -4 35
-28 36 -26 1 -28 -1 -27 -40z"/>
<path d="M8484 166 c-16 -41 20 -86 47 -59 6 6 1 9 -12 9 -12 -1 -24 5 -26 12
-3 7 5 12 22 12 20 0 26 4 23 18 -4 22 -46 29 -54 8z m46 -6 c0 -5 -9 -10 -21
-10 -11 0 -17 5 -14 10 3 6 13 10 21 10 8 0 14 -4 14 -10z"/>
<path d="M8561 135 c2 -33 3 -35 6 -10 2 17 11 35 20 42 13 10 13 12 -6 10
-18 -1 -21 -7 -20 -42z"/>
<path d="M8616 172 c-3 -5 6 -7 19 -4 33 6 32 -14 0 -22 -16 -4 -25 -13 -25
-26 0 -16 6 -20 30 -18 29 2 31 5 28 38 -2 27 -8 36 -25 38 -11 2 -24 -1 -27
-6z m44 -42 c0 -12 -28 -25 -36 -17 -9 9 6 27 22 27 8 0 14 -5 14 -10z"/>
</g>
</svg>
