<svg xmlns="http://www.w3.org/2000/svg" width="805" height="600"><rect width="805" height="600" x="0" y="0" fill="#FFFFFF" id="background"/><g transform="translate(402.5,300)" id="viz"><path fill="#2ca02c" display="" d="M0.9999920729479259,-142.9965035091909A143,143,0,0,1,98.84734965867895,-103.33538341466036L49.75748267442048,-52.72990534701107A72.5,72.5,0,0,0,0.9999920729479103,-72.49310322957655Z"><title>Lunes</title></path><path fill="#d62728" display="" d="M100.28288544034876,-101.94284127763893A143,143,0,0,1,142.5659696780091,-11.133026981418045L72.23989456226526,-6.13576675182473A72.5,72.5,0,0,0,51.19301845609031,-51.33736320998964Z"><title>Martes</title></path><path fill="#9467bd" display="" d="M142.70772796473665,-9.138073054135843A143,143,0,0,1,123.37288032425181,72.30582549489245L62.79703297392852,36.23234259154842A72.5,72.5,0,0,0,72.38165284899279,-4.140812824542532Z"><title>Miércoles</title></path><path fill="#ff7f0e" display="" d="M122.3495765742511,74.02419274873228A143,143,0,0,1,15.461577747105759,142.16166717357464L8.328867046408904,72.01999704056675A72.5,72.5,0,0,0,61.773729223927795,37.95070984538825Z"><title>Jueves</title></path><path fill="#e377c2" display="" d="M13.471854873083853,142.36400221361637A143,143,0,0,1,-108.79446321600112,92.80498248231169L-54.8367891644979,47.425484226609704A72.5,72.5,0,0,0,6.33914417238702,72.22233208060851Z"><title>Viernes</title></path><path fill="#8c564b" display="" d="M-110.0817525765166,91.274354282474A143,143,0,0,1,-127.53872877841789,-64.67513170906697L-64.88273152127897,-32.34936089535049A72.5,72.5,0,0,0,-56.12407852501334,45.89485602677207Z"><title>Sábado</title></path><path fill="#1f77b4" display="" d="M-126.62173713156268,-66.4525069939836A143,143,0,0,1,-0.9999920729478798,-142.9965035091909L-0.9999920729479354,-72.49310322957655A72.5,72.5,0,0,0,-63.96573987442379,-34.12673618026708Z"><title>Domingo</title></path><path fill="#2ca02c" display="" d="M0.999992072947919,-215.49767983867955A215.5,215.5,0,0,1,75.95336850285052,-201.67135595584762L50.79922903505966,-135.8103027367348A145,145,0,0,0,0.999992072947915,-144.99655173780528Z"><title>Youtube </title></path><path fill="#2ca02c" display="" d="M77.82172246850277,-200.95778042174763A215.5,215.5,0,0,1,149.32822133439518,-155.3748123509917L100.239936414997,-104.77096519321255A145,145,0,0,0,52.66758300071191,-135.09672720263478Z"><title>Twitch </title></path><path fill="#2ca02c" display="none" d="M150.04760469923775,-154.68020663297966L100.96010525006717,-104.07716919620442Z"><title/></path><path fill="#d62728" display="" d="M150.76375711606502,-153.98227021397028A215.5,215.5,0,0,1,177.5481836563275,-122.13473085219862L119.27825926939,-82.44814652655435A145,145,0,0,0,101.67547219666685,-103.37842305619112Z"><title>Twitch </title></path><path fill="#d62728" display="" d="M178.6740172648689,-120.48172290614595A215.5,215.5,0,0,1,211.32383653421934,-42.21949919715476L142.12559743805664,-28.728288373578103A145,145,0,0,0,120.40409287793139,-80.79513858050167Z"><title>Star+</title></path><path fill="#d62728" display="" d="M211.70655676129832,-40.25647555704769A215.5,215.5,0,0,1,214.8847961786606,-16.271888988543743L144.56098752683357,-11.27478981030976A145,145,0,0,0,142.50831766513565,-26.765264733471035Z"><title>Flow </title></path><path fill="#d62728" display="none" d="M214.95798964783918,-15.274576477253126L144.63530625956696,-10.277557258476582Z"><title/></path><path fill="#9467bd" display="" d="M215.0265544653881,-14.276935061261549A215.5,215.5,0,0,1,210.84719707302756,44.53885367235983L141.9365967243988,29.647976495797888A145,145,0,0,0,144.70274581356108,-9.279835883027562Z"><title>Youtube </title></path><path fill="#9467bd" display="" d="M210.42477094916478,46.49371754325029A215.5,215.5,0,0,1,203.8869767431874,69.78789805204741L137.29172812018606,46.64741568160993A145,145,0,0,0,141.514170600536,31.60284036668835Z"><title>Flow </title></path><path fill="#9467bd" display="" d="M203.23052486623249,71.67707975772768A215.5,215.5,0,0,1,185.66519775342763,109.40148236281175L125.09130263735068,73.32916203319618A145,145,0,0,0,136.63527624323117,48.53659738729019Z"><title>Twitch </title></path><path fill="#9467bd" display="none" d="M185.15553933884786,110.26185311403196L124.58261347625493,74.19010998391941Z"><title/></path><path fill="#ff7f0e" display="" d="M184.64189400342693,111.11984961665158A215.5,215.5,0,0,1,127.47536869367597,173.7535046449751L86.0358453259996,116.71689388876263A145,145,0,0,0,124.06799888734996,75.04752928703603Z"><title>Netflix</title></path><path fill="#ff7f0e" display="" d="M125.85734753116579,174.9290658307514A215.5,215.5,0,0,1,105.45578663175917,187.93436903844088L71.24145080374973,126.29194624906573A145,145,0,0,0,84.41782416348941,117.89245507453894Z"><title>Flow </title></path><path fill="#ff7f0e" display="" d="M103.70710726145235,188.90496526947516A215.5,215.5,0,0,1,22.796400098475058,214.29086341360951L15.6639192702886,144.15145380152737A145,145,0,0,0,69.49277143344291,127.26254248010001Z"><title>Star+</title></path><path fill="#ff7f0e" display="none" d="M21.801773388291643,214.39433919095342L14.669406688177673,144.2560518918248Z"><title/></path><path fill="#e377c2" display="" d="M20.80667722445317,214.49319845365125A215.5,215.5,0,0,1,-20.806677224453146,214.49319845365125L-13.674196396266698,144.35378884156913A145,145,0,0,0,13.674196396266717,144.35378884156913Z"><title>Twitch</title></path><path fill="#e377c2" display="" d="M-22.79640009847503,214.29086341360951A215.5,215.5,0,0,1,-95.96642900674942,192.9525706065937L-64.27829505542039,129.97423123361153A145,145,0,0,0,-15.663919270288583,144.15145380152737Z"><title>Youtube </title></path><path fill="#e377c2" display="" d="M-97.75300581301828,192.053637962211A215.5,215.5,0,0,1,-164.2810755669269,139.47034885800514L-110.32514045963568,94.092313089655A145,145,0,0,0,-66.06487186168916,129.07529858922888Z"><title>Amazon </title></path><path fill="#e377c2" display="none" d="M-164.92649591343306,138.70652812941557L-110.97142416449091,93.32921846294782Z"><title/></path><path fill="#8c564b" display="" d="M-165.56836492744236,137.93972065816746A215.5,215.5,0,0,1,-205.96832638045234,63.38216253833138L-138.49000423154234,42.95950102069833A145,145,0,0,0,-111.6124298201511,92.56168488981737Z"><title>Amazon </title></path><path fill="#8c564b" display="" d="M-206.54767880150612,61.46792970086A215.5,215.5,0,0,1,-214.2713293803969,-22.9792820940396L-144.20780198015362,-15.136374997098981A145,145,0,0,0,-139.0693566525961,41.04526818322701Z"><title>Star+</title></path><path fill="#8c564b" display="" d="M-214.04884088589833,-24.966852332710513A215.5,215.5,0,0,1,-191.9701389972703,-97.91688175880967L-129.31616101330602,-65.59215273781393A145,145,0,0,0,-143.98531348565504,-17.12394523576983Z"><title>Youtube </title></path><path fill="#8c564b" display="none" d="M-191.5137050888816,-98.80663319397581L-128.86072964217092,-66.48242140661945Z"><title/></path><path fill="#1f77b4" display="" d="M-191.05314735041512,-99.69425704372628A215.5,215.5,0,0,1,-150.76375711606502,-153.98227021397028L-101.6754721966668,-103.37842305619115A145,145,0,0,0,-128.39916936645085,-67.36952802273049Z"><title>Twitch</title></path><path fill="#1f77b4" display="" d="M-149.32822133439518,-155.3748123509917A215.5,215.5,0,0,1,-77.82172246850274,-200.95778042174763L-52.66758300071187,-135.09672720263478A145,145,0,0,0,-100.23993641499702,-104.77096519321253Z"><title>Amazon </title></path><path fill="#1f77b4" display="" d="M-75.9533685028505,-201.67135595584762A215.5,215.5,0,0,1,-0.9999920729479453,-215.49767983867955L-0.9999920729479006,-144.99655173780528A145,145,0,0,0,-50.799229035059675,-135.81030273673477Z"><title>Youtube </title></path><path fill="#1f77b4" display="none" d="M-3.958670778243819e-14,-215.5L-2.663606788145493e-14,-145Z"><title/></path><path fill="#2ca02c" display="" d="M0.9999920729479248,-287.99826391118063A288,288,0,0,1,101.82089505712948,-269.40026972845635L76.66695730568858,-203.53974466302085A217.5,217.5,0,0,0,0.9999920729479188,-217.49770117372285Z"><title>Deporte</title></path><path fill="#2ca02c" display="" d="M103.68924902278172,-268.68669419435633A288,288,0,0,1,199.80868063543693,-207.41381618090435L150.72078936534933,-156.81037482604904A217.5,217.5,0,0,0,78.53531127134083,-202.82616912892084Z"><title>Radio</title></path><path fill="#2ca02c" display="none" d="M200.52765732427133,-206.71879123108187L151.44015787510077,-156.1157537943066Z"><title/></path><path fill="#d62728" display="" d="M201.24421641710674,-206.0212740438829A288,288,0,0,1,237.4706794477254,-162.94685146585576L179.20122233960197,-123.26058539530202A217.5,217.5,0,0,0,152.15632514701915,-155.41783268902765Z"><title>Radio</title></path><path fill="#d62728" display="" d="M238.59651305626676,-161.2938435198031A288,288,0,0,1,282.48458085709143,-56.0933291755211L213.28689667620355,-42.60222654080964A217.5,217.5,0,0,0,180.32705594814337,-121.60757744924933Z"><title>Serie</title></path><path fill="#d62728" display="" d="M282.86730108417044,-54.13030553541403A288,288,0,0,1,287.2030319119273,-21.41070901666874L216.87978720155476,-16.413649911227072A217.5,217.5,0,0,0,213.66961690328256,-40.63920290070257Z"><title>Noticias</title></path><path fill="#d62728" display="none" d="M287.2756427776227,-20.413355106491416L216.95295938935047,-15.416335887714872Z"><title/></path><path fill="#9467bd" display="" d="M287.34479019865483,-19.415755089386547A288,288,0,0,1,281.71214503405633,59.852045414595615L212.80209729406656,44.961287651118575A217.5,217.5,0,0,0,217.02154548828227,-14.41869598394487Z"><title>Deporte</title></path><path fill="#9467bd" display="" d="M281.2897189101935,61.806909285486086A288,288,0,0,1,272.37090815933084,93.58465893757041L205.77619357767466,70.44436213554191A217.5,217.5,0,0,0,212.37967117020378,46.916151522009045Z"><title>Noticias</title></path><path fill="#9467bd" display="" d="M271.7144562823759,95.47384064325067A288,288,0,0,1,247.95700632106298,146.4968361989307L187.38359695982734,110.42480514086034A217.5,217.5,0,0,0,205.11974170071974,72.33354384122217Z"><title>Radio</title></path><path fill="#9467bd" display="none" d="M247.44684607697533,147.35690810599166L186.8739202143824,111.28516497587913Z"><title/></path><path fill="#ff7f0e" display="" d="M246.93370257106224,148.21520345277054A288,288,0,0,1,170.09014279408265,232.4077092617381L128.6509517386847,175.37155589413757A217.5,217.5,0,0,0,186.36029320982664,112.14317239470017Z"><title>Pelicula</title></path><path fill="#ff7f0e" display="" d="M168.47212163157246,233.5832704475144A288,288,0,0,1,140.64046236679357,251.32500939073796L106.4264009107597,189.68308092495292A217.5,217.5,0,0,0,127.03293057617454,176.5471170799139Z"><title>Noticias</title></path><path fill="#ff7f0e" display="" d="M138.89178299648674,252.29560562177224A288,288,0,0,1,30.131162532198744,286.4194704353359L22.99873890088045,216.28062328597338A217.5,217.5,0,0,0,104.6777215404529,190.65367715598722Z"><title>Serie</title></path><path fill="#ff7f0e" display="none" d="M29.13647673238048,286.5223651368658L22.00411003226651,216.3840778377372Z"><title/></path><path fill="#e377c2" display="" d="M28.141439658176857,286.6218054753776A288,288,0,0,1,-28.14143965817682,286.6218054753776L-21.00901602685854,216.48295832601514A217.5,217.5,0,0,0,21.009016026858568,216.48295832601514Z"><title>Games</title></path><path fill="#e377c2" display="" d="M-30.131162532198708,286.4194704353359A288,288,0,0,1,-128.55325820403314,257.7170149701552L-96.86537836653399,194.73918063376001A217.5,217.5,0,0,0,-22.998738900880422,216.28062328597338Z"><title>Radio</title></path><path fill="#e377c2" display="" d="M-130.33983501030198,256.8180823257725A288,288,0,0,1,-219.76723465163622,186.13533402761732L-165.81173222836912,140.75766215530723A217.5,217.5,0,0,0,-98.65195517280274,193.8402479893774Z"><title>Drama </title></path><path fill="#e377c2" display="none" d="M-220.4122079956785,185.37113736088946L-166.45713624673638,139.99382769442175Z"><title/></path><path fill="#8c564b" display="" d="M-221.05452401215166,184.60470582777967A288,288,0,0,1,-275.36037583856154,84.38402347628454L-207.88259481254957,63.9615257322818A217.5,217.5,0,0,0,-167.09902158888454,139.22703395546964Z"><title>Drama </title></path><path fill="#8c564b" display="" d="M-275.93972825961526,82.46979063881315A288,288,0,0,1,-286.32190212342124,-31.044618928664086L-216.25893657738217,-23.201774725649738A217.5,217.5,0,0,0,-208.46194723360327,62.0472928948105Z"><title>Serie</title></path><path fill="#8c564b" display="" d="M-286.0994136289227,-33.032189167335A288,288,0,0,1,-256.4010228804844,-131.15836025904457L-193.7475473319847,-98.83389045686887A217.5,217.5,0,0,0,-216.0364480828836,-25.189344964320558Z"><title>Deporte</title></path><path fill="#8c564b" display="none" d="M-255.94406990996706,-132.04784389728553L-193.29109446325637,-99.72363210992918Z"><title/></path><path fill="#1f77b4" display="" d="M-255.48403123362922,-132.93573554396116A288,288,0,0,1,-201.2442164171067,-206.02127404388295L-152.1563251470191,-155.41783268902768A217.5,217.5,0,0,0,-192.83055568512953,-100.6112657417854Z"><title>Games</title></path><path fill="#1f77b4" display="" d="M-199.8086806354369,-207.41381618090438A288,288,0,0,1,-103.6892490227817,-268.68669419435633L-78.53531127134086,-202.82616912892084A217.5,217.5,0,0,0,-150.72078936534933,-156.81037482604904Z"><title>Drama </title></path><path fill="#1f77b4" display="" d="M-101.82089505712945,-269.40026972845635A288,288,0,0,1,-0.99999207294796,-287.99826391118063L-0.9999920729479937,-217.49770117372285A217.5,217.5,0,0,0,-76.66695730568851,-203.53974466302088Z"><title>IRL</title></path><path fill="#1f77b4" display="none" d="M-5.2904741723165653e-14,-288L-3.995410182218239e-14,-217.5Z"><title/></path></g><g id="labels" transform="translate(402.5,300)" text-anchor="middle"><text transform="rotate(90) translate(36.25,0) rotate(180)"><tspan x="0" y="4" style="font-family: Arial, sans-serif; font-size: 10px; fill: black; font-weight: normal; font-style: italic;"/></text><text transform="rotate(-67.93548387096774) translate(108.75,0) rotate(0)"><tspan x="0" y="4" style="font-family: Arial, sans-serif; font-size: 10px; fill: black; font-weight: normal; font-style: italic;">Lunes</tspan></text><text transform="rotate(-24.967741935483872) translate(108.75,0) rotate(0)"><tspan x="0" y="4" style="font-family: Arial, sans-serif; font-size: 10px; fill: black; font-weight: normal; font-style: italic;">Martes</tspan></text><text transform="rotate(13.354838709677423) translate(108.75,0) rotate(0)"><tspan x="0" y="4" style="font-family: Arial, sans-serif; font-size: 10px; fill: black; font-weight: normal; font-style: italic;">Miércoles</tspan></text><text transform="rotate(57.48387096774195) translate(108.75,0) rotate(0)"><tspan x="0" y="4" style="font-family: Arial, sans-serif; font-size: 10px; fill: black; font-weight: normal; font-style: italic;">Jueves</tspan></text><text transform="rotate(112.06451612903226) translate(108.75,0) rotate(180)"><tspan x="0" y="4" style="font-family: Arial, sans-serif; font-size: 10px; fill: black; font-weight: normal; font-style: italic;">Viernes</tspan></text><text transform="rotate(173.61290322580646) translate(108.75,0) rotate(180)"><tspan x="0" y="4" style="font-family: Arial, sans-serif; font-size: 10px; fill: black; font-weight: normal; font-style: italic;">Sábado</tspan></text><text transform="rotate(238.64516129032262) translate(108.75,0) rotate(180)"><tspan x="0" y="4" style="font-family: Arial, sans-serif; font-size: 10px; fill: black; font-weight: normal; font-style: italic;">Domingo</tspan></text><text transform="rotate(-79.54838709677419) translate(181.25,0) rotate(0)"><tspan x="0" y="4" style="font-family: Arial, sans-serif; font-size: 10px; fill: black; font-weight: normal; font-style: italic;">Youtube </tspan></text><text transform="rotate(-57.483870967741936) translate(181.25,0) rotate(0)"><tspan x="0" y="4" style="font-family: Arial, sans-serif; font-size: 10px; fill: black; font-weight: normal; font-style: italic;">Twitch </tspan></text><text/><text transform="rotate(-40.06451612903226) translate(181.25,0) rotate(0)"><tspan x="0" y="4" style="font-family: Arial, sans-serif; font-size: 10px; fill: black; font-weight: normal; font-style: italic;">Twitch </tspan></text><text transform="rotate(-22.64516129032259) translate(181.25,0) rotate(0)"><tspan x="0" y="4" style="font-family: Arial, sans-serif; font-size: 10px; fill: black; font-weight: normal; font-style: italic;">Star+</tspan></text><text transform="rotate(-7.548387096774206) translate(181.25,0) rotate(0)"><tspan x="0" y="4" style="font-family: Arial, sans-serif; font-size: 10px; fill: black; font-weight: normal; font-style: italic;">Flow </tspan></text><text/><text transform="rotate(4.064516129032242) translate(181.25,0) rotate(0)"><tspan x="0" y="4" style="font-family: Arial, sans-serif; font-size: 10px; fill: black; font-weight: normal; font-style: italic;">Youtube </tspan></text><text transform="rotate(15.677419354838705) translate(181.25,0) rotate(0)"><tspan x="0" y="4" style="font-family: Arial, sans-serif; font-size: 10px; fill: black; font-weight: normal; font-style: italic;">Flow </tspan></text><text transform="rotate(24.967741935483886) translate(181.25,0) rotate(0)"><tspan x="0" y="4" style="font-family: Arial, sans-serif; font-size: 10px; fill: black; font-weight: normal; font-style: italic;">Twitch </tspan></text><text/><text transform="rotate(42.387096774193566) translate(181.25,0) rotate(0)"><tspan x="0" y="4" style="font-family: Arial, sans-serif; font-size: 10px; fill: black; font-weight: normal; font-style: italic;">Netflix</tspan></text><text transform="rotate(57.48387096774195) translate(181.25,0) rotate(0)"><tspan x="0" y="4" style="font-family: Arial, sans-serif; font-size: 10px; fill: black; font-weight: normal; font-style: italic;">Flow </tspan></text><text transform="rotate(72.58064516129033) translate(181.25,0) rotate(0)"><tspan x="0" y="4" style="font-family: Arial, sans-serif; font-size: 10px; fill: black; font-weight: normal; font-style: italic;">Star+</tspan></text><text/><text transform="rotate(90) translate(181.25,0) rotate(180)"><tspan x="0" y="4" style="font-family: Arial, sans-serif; font-size: 10px; fill: black; font-weight: normal; font-style: italic;">Twitch</tspan></text><text transform="rotate(106.25806451612905) translate(181.25,0) rotate(180)"><tspan x="0" y="4" style="font-family: Arial, sans-serif; font-size: 10px; fill: black; font-weight: normal; font-style: italic;">Youtube </tspan></text><text transform="rotate(128.3225806451613) translate(181.25,0) rotate(180)"><tspan x="0" y="4" style="font-family: Arial, sans-serif; font-size: 10px; fill: black; font-weight: normal; font-style: italic;">Amazon </tspan></text><text/><text transform="rotate(151.54838709677418) translate(181.25,0) rotate(180)"><tspan x="0" y="4" style="font-family: Arial, sans-serif; font-size: 10px; fill: black; font-weight: normal; font-style: italic;">Amazon </tspan></text><text transform="rotate(174.77419354838713) translate(181.25,0) rotate(180)"><tspan x="0" y="4" style="font-family: Arial, sans-serif; font-size: 10px; fill: black; font-weight: normal; font-style: italic;">Star+</tspan></text><text transform="rotate(196.8387096774194) translate(181.25,0) rotate(180)"><tspan x="0" y="4" style="font-family: Arial, sans-serif; font-size: 10px; fill: black; font-weight: normal; font-style: italic;">Youtube </tspan></text><text/><text transform="rotate(216.5806451612903) translate(181.25,0) rotate(180)"><tspan x="0" y="4" style="font-family: Arial, sans-serif; font-size: 10px; fill: black; font-weight: normal; font-style: italic;">Twitch</tspan></text><text transform="rotate(237.48387096774195) translate(181.25,0) rotate(180)"><tspan x="0" y="4" style="font-family: Arial, sans-serif; font-size: 10px; fill: black; font-weight: normal; font-style: italic;">Amazon </tspan></text><text transform="rotate(259.5483870967742) translate(181.25,0) rotate(180)"><tspan x="0" y="4" style="font-family: Arial, sans-serif; font-size: 10px; fill: black; font-weight: normal; font-style: italic;">Youtube </tspan></text><text/><text transform="rotate(-79.54838709677419) translate(253.75,0) rotate(0)"><tspan x="0" y="4" style="font-family: Arial, sans-serif; font-size: 10px; fill: black; font-weight: bold;">Televisor</tspan></text><text transform="rotate(-57.483870967741936) translate(253.75,0) rotate(0)"><tspan x="0" y="4" style="font-family: Arial, sans-serif; font-size: 10px; fill: black; font-weight: bold;">Computadora</tspan></text><text/><text transform="rotate(-40.06451612903226) translate(253.75,0) rotate(0)"><tspan x="0" y="4" style="font-family: Arial, sans-serif; font-size: 10px; fill: black; font-weight: bold;">Computadora</tspan></text><text transform="rotate(-22.64516129032259) translate(253.75,0) rotate(0)"><tspan x="0" y="4" style="font-family: Arial, sans-serif; font-size: 10px; fill: black; font-weight: bold;">Televisor</tspan></text><text transform="rotate(-7.548387096774206) translate(253.75,0) rotate(0)"><tspan x="0" y="4" style="font-family: Arial, sans-serif; font-size: 10px; fill: black; font-weight: bold;">Televisor</tspan></text><text/><text transform="rotate(4.064516129032242) translate(253.75,0) rotate(0)"><tspan x="0" y="4" style="font-family: Arial, sans-serif; font-size: 10px; fill: black; font-weight: bold;">Televisor</tspan></text><text transform="rotate(15.677419354838705) translate(253.75,0) rotate(0)"><tspan x="0" y="4" style="font-family: Arial, sans-serif; font-size: 10px; fill: black; font-weight: bold;">Televisor</tspan></text><text transform="rotate(24.967741935483886) translate(253.75,0) rotate(0)"><tspan x="0" y="4" style="font-family: Arial, sans-serif; font-size: 10px; fill: black; font-weight: bold;">Computadora</tspan></text><text/><text transform="rotate(42.387096774193566) translate(253.75,0) rotate(0)"><tspan x="0" y="4" style="font-family: Arial, sans-serif; font-size: 10px; fill: black; font-weight: bold;">Televisor</tspan></text><text transform="rotate(57.48387096774195) translate(253.75,0) rotate(0)"><tspan x="0" y="4" style="font-family: Arial, sans-serif; font-size: 10px; fill: black; font-weight: bold;">Televisor</tspan></text><text transform="rotate(72.58064516129033) translate(253.75,0) rotate(0)"><tspan x="0" y="4" style="font-family: Arial, sans-serif; font-size: 10px; fill: black; font-weight: bold;">Televisor</tspan></text><text/><text transform="rotate(90) translate(253.75,0) rotate(180)"><tspan x="0" y="4" style="font-family: Arial, sans-serif; font-size: 10px; fill: black; font-weight: bold;">Computadora</tspan></text><text transform="rotate(106.25806451612905) translate(253.75,0) rotate(180)"><tspan x="0" y="4" style="font-family: Arial, sans-serif; font-size: 10px; fill: black; font-weight: bold;">Televisor</tspan></text><text transform="rotate(128.3225806451613) translate(253.75,0) rotate(180)"><tspan x="0" y="4" style="font-family: Arial, sans-serif; font-size: 10px; fill: black; font-weight: bold;">Celular</tspan></text><text/><text transform="rotate(151.54838709677418) translate(253.75,0) rotate(180)"><tspan x="0" y="4" style="font-family: Arial, sans-serif; font-size: 10px; fill: black; font-weight: bold;">Celular</tspan></text><text transform="rotate(174.77419354838713) translate(253.75,0) rotate(180)"><tspan x="0" y="4" style="font-family: Arial, sans-serif; font-size: 10px; fill: black; font-weight: bold;">Televisor</tspan></text><text transform="rotate(196.8387096774194) translate(253.75,0) rotate(180)"><tspan x="0" y="4" style="font-family: Arial, sans-serif; font-size: 10px; fill: black; font-weight: bold;">Televisor</tspan></text><text/><text transform="rotate(216.5806451612903) translate(253.75,0) rotate(180)"><tspan x="0" y="4" style="font-family: Arial, sans-serif; font-size: 10px; fill: black; font-weight: bold;">Computadora</tspan></text><text transform="rotate(237.48387096774195) translate(253.75,0) rotate(180)"><tspan x="0" y="4" style="font-family: Arial, sans-serif; font-size: 10px; fill: black; font-weight: bold;">Celular</tspan></text><text transform="rotate(259.5483870967742) translate(253.75,0) rotate(180)"><tspan x="0" y="4" style="font-family: Arial, sans-serif; font-size: 10px; fill: black; font-weight: bold;">Televisor</tspan></text><text/></g></svg>